<?xml version="1.0" encoding="UTF-8" standalone="no"?>
<!-- Created with Inkscape (http://www.inkscape.org/) -->

<svg
   xmlns:dc="http://purl.org/dc/elements/1.1/"
   xmlns:cc="http://creativecommons.org/ns#"
   xmlns:rdf="http://www.w3.org/1999/02/22-rdf-syntax-ns#"
   xmlns:svg="http://www.w3.org/2000/svg"
   xmlns="http://www.w3.org/2000/svg"
   version="1.1"
   width="678.16669"
   height="255.24663"
   id="svg3162">
  <metadata
     id="metadata3168">
    <rdf:RDF>
      <cc:Work
         rdf:about="">
        <dc:format>image/svg+xml</dc:format>
        <dc:type
           rdf:resource="http://purl.org/dc/dcmitype/StillImage" />
        <dc:title></dc:title>
      </cc:Work>
    </rdf:RDF>
  </metadata>
  <defs
     id="defs3166" />
  <g
     transform="translate(177.66327,-311.87339)"
     id="g3434">
    <path
       d="m 161.33673,567.1171 -339,0 0,-1.5 0,-1.5 339,0 339,0 0,1.5 0,1.5 -339,0 z m -277.05001,-15 c -0.3878,0 -1.14095,-0.5625 -1.67365,-1.25 -0.5327,-0.6875 -3.38758,-5.8625 -6.34418,-11.5 l -5.37564,-10.25 -1.77826,0 -1.77826,0 0,-1 0,-1 6.12244,0 6.12245,0 -1.16305,1.40139 -1.16305,1.40139 3.7309,7.54002 3.7309,7.54002 0.8346,-0.51582 c 0.45903,-0.28369 2.43572,-3.6952 4.39264,-7.58113 l 3.55804,-7.06532 -1.30397,-0.8059 -1.30398,-0.8059 0.61355,-0.61356 0.61356,-0.61355 4.85748,0.38663 4.85749,0.38664 -2.02294,0.7298 -2.02295,0.7298 -6.39951,11.44274 c -3.51972,6.29351 -6.7168,11.44275 -7.10461,11.44275 z m 58.05001,0 -4.88197,0 -0.61803,-1 -0.61803,-1 1.55901,0 1.55902,0 0,-10.5 0,-10.5 -1.5,0 -1.5,0 0,-1.0995 0,-1.0995 8.89646,0.3495 8.89645,0.3495 2.10355,1.90499 2.10354,1.90499 0,2.17069 0,2.1707 -2.40171,2.25629 -2.4017,2.25629 -4.0983,0.54969 -4.09829,0.5497 0,-1.13167 0,-1.13167 2.06574,0 c 1.13616,0 2.93616,-0.46583 4,-1.03518 l 1.93426,-1.03519 0,-2.40811 0,-2.40811 -2.22251,-1.55671 -2.2225,-1.5567 -2.2775,0 -2.27749,0 0,10.5 0,10.5 2.05902,0 2.05901,0 -0.61803,1 -0.61803,1 -4.88197,0 z m 61.61514,-0.0789 c -2.81333,-0.0434 -5.67764,-0.30592 -6.36514,-0.58333 l -1.25,-0.50439 0,-2.35765 0,-2.35765 0.928,-0.57353 0.92801,-0.57354 0.62836,1.97978 0.62835,1.97978 3.33834,0.62628 3.33835,0.62627 2.10529,-1.12672 2.1053,-1.12672 0,-1.89241 0,-1.89241 -5.89672,-3.58207 -5.89672,-3.58207 -0.60328,-1.57212 c -0.3318,-0.86472 -0.60328,-2.21037 -0.60328,-2.99039 l 0,-1.41821 2,-2 2,-2 6,0 6,0 0,2.65499 0,2.65499 -1.82874,-1.65499 -1.82874,-1.65499 -2.92126,0.0153 c -1.60669,0.008 -3.54933,0.41301 -4.31698,0.89908 l -1.39571,0.88376 0.62835,1.63747 0.62836,1.63747 3.14338,1.71346 c 1.72887,0.9424 4.43668,2.76595 6.01736,4.05234 l 2.87398,2.3389 0,2.83852 0,2.83853 -2.63486,2.07258 -2.63486,2.07258 -5.11514,-0.0789 z m 58.88486,0.0789 -6.5,0 0,-1 0,-1 1.5,0 1.5,0 0,-12.34719 0,-12.34718 -2.25,-1.08514 -2.25,-1.08513 11.25,-0.0677 11.25,-0.0677 0,2.33333 c 0,1.28334 -0.29301,2.62634 -0.65112,2.98446 l -0.65113,0.65112 -1.09887,-1.41645 -1.09888,-1.41646 -4.75,-0.68154 -4.75,-0.68155 0,5.23374 0,5.23373 6.06925,-0.43901 6.06925,-0.43901 -0.55559,2.06882 c -0.30558,1.13785 -0.57543,2.74382 -0.59966,3.56882 l -0.0441,1.5 -1.01928,-1.75 -1.01928,-1.75 -4.45031,0 -4.45031,0 0.0137,3.75 c 0.008,2.0625 0.285,4.7625 0.61664,6 l 0.60297,2.25 1.88337,0 1.88337,0 0,1 0,1 -6.5,0 z m 60,0 -5.5,0 0,-0.91667 c 0,-0.50416 0.51168,-1.08722 1.13707,-1.29569 l 1.13708,-0.37902 0.48973,-7.63102 0.48973,-7.63101 -0.64586,-2.5733 -0.64585,-2.57329 -1.48095,0 -1.48095,0 0,-1 0,-1 8.04966,0 8.04966,0 2.95034,1.52568 2.95034,1.52568 0,3.15987 0,3.15987 -2.0293,2.16008 -2.02929,2.16009 4.47019,4.12048 4.47019,4.12048 2.5591,0.64229 2.55911,0.6423 0,0.89159 0,0.89159 -2.53212,0 c -1.39266,0 -3.98016,-0.62134 -5.75,-1.38076 l -3.21788,-1.38076 -3.44617,-3.61924 -3.44616,-3.61924 -2.80384,0 -2.80383,0 0,3.59362 0,3.59362 2,0.52301 2,0.52301 0,0.88337 0,0.88337 -5.5,0 z m 6.25,-12.116 1.25,0.116 2.05115,-2.05115 2.05115,-2.05115 -0.66354,-2.19885 c -0.36495,-1.20937 -0.98931,-2.55269 -1.38746,-2.98516 -0.39815,-0.43247 -2.37258,-1.05384 -4.38761,-1.38084 l -3.66369,-0.59453 0,5.05751 0,5.05752 1.75,0.45732 c 0.9625,0.25153 2.3125,0.50953 3,0.57333 z m 62.5,11.75398 -9.25,0.13798 0,-0.80465 c 0,-0.44255 0.51168,-0.9752 1.13707,-1.18367 l 1.13708,-0.37902 0.48973,-7.63102 0.48973,-7.63101 -0.64586,-2.5733 -0.64585,-2.57329 -1.48095,0 -1.48095,0 0,-1 0,-1 9.5,0 9.5,0 0,1.94098 0,1.94099 -0.91459,0.56524 -0.91459,0.56525 -0.35691,-1.07074 -0.35692,-1.07074 -4.22849,-0.56716 -4.2285,-0.56716 0,4.58456 0,4.58455 5,-0.59218 5,-0.59217 0,2.63929 0,2.63929 -1,0 c -0.55,0 -1,-0.45 -1,-1 l 0,-1 -4.0575,0 -4.0575,0 0.3075,4.25 0.3075,4.25 4.34434,0.31211 4.34435,0.31211 1.42829,-1.81211 1.4283,-1.81211 -0.27264,3 -0.27264,3 -9.25,0.13798 z m 59,0.0555 -9.25,0.19348 0,-0.83649 c 0,-0.46007 0.675,-1.09551 1.5,-1.4121 l 1.5,-0.5756 0,-10.03139 0,-10.03138 -1.44098,0 c -0.79254,0 -1.7191,-0.45 -2.05902,-1 l -0.61803,-1 9.55901,0 9.55902,0 0,2.5 0,2.5 -0.91667,0 c -0.50416,0 -1.0702,-0.46061 -1.25786,-1.02358 l -0.34119,-1.02357 -3.74214,-0.60727 -3.74214,-0.60726 0,4.58372 0,4.58373 4.88536,-0.5786 4.88536,-0.5786 -0.51533,2.69575 -0.51532,2.69575 -1.07004,-1.07004 -1.07003,-1.07003 -3.3,0 -3.3,0 0,4.5 0,4.5 4.45031,0 4.45031,0 1.07032,-1.75 1.07032,-1.75 -0.27063,3 -0.27063,3 -9.25,0.19348 z m 112.75,0.24731 -6.5,-0.0286 -3.75948,-1.34152 c -2.06771,-0.73784 -4.49991,-1.95559 -5.4049,-2.70611 -0.90499,-0.75052 -2.27624,-2.8737 -3.04723,-4.71817 l -1.4018,-3.35359 0.60529,-2.75587 0.60529,-2.75587 2.70142,-2.57692 c 1.48577,-1.41731 3.9682,-3.05555 5.51651,-3.64054 l 2.8151,-1.0636 8.37588,0 8.37589,0 0.46704,0.7557 c 0.25688,0.41563 0.21923,2.05209 -0.0837,3.63657 l -0.55072,2.88087 -1.71179,-2.26938 -1.7118,-2.26938 -5.02894,-0.48322 -5.02894,-0.48321 -3.62426,1.19611 -3.62425,1.19611 -1.09233,2.04103 -1.09232,2.04102 0,3.43965 0,3.43965 1.84764,2.04162 c 1.0162,1.12289 3.06385,2.67055 4.55034,3.43924 l 2.7027,1.39762 5.54119,0 5.54118,0 1.24902,-2 c 0.68696,-1.1 1.59935,-2 2.02753,-2 l 0.7785,0 -0.67302,2.75 c -0.37016,1.5125 -1.16624,3.08061 -1.76905,3.48469 l -1.09603,0.73468 -6.5,-0.0286 z m 61.77144,-0.077 c -5.09929,-0.0749 -10.28394,-0.3312 -11.52144,-0.56955 -1.2375,-0.23836 -2.25,-0.67996 -2.25,-0.98135 0,-0.30138 3.23932,-4.20758 7.19849,-8.68044 3.95918,-4.47287 8.12168,-9.20735 9.25,-10.52108 l 2.05151,-2.3886 -7.35356,0.5891 -7.35356,0.5891 -1.36464,1.7995 -1.36463,1.7995 -0.0318,-3.25 -0.0318,-3.24997 11.5,0 11.5,0 0,0.99365 c 0,0.54651 -3.22854,4.70901 -7.17453,9.25 -3.94599,4.54099 -7.84074,9.04385 -8.65499,10.00635 l -1.48046,1.75 7.08356,0 7.08356,0 1.61905,-1.61905 1.61905,-1.61905 0.61482,0.61483 0.61482,0.61482 -1.141,2.50422 -1.141,2.50423 -9.27144,-0.13618 z m -122.21242,-0.86379 -2.44099,0 -0.67734,-1.09596 -0.67734,-1.09596 1.44078,-1.44079 1.44079,-1.44078 1.67754,0.64373 1.67754,0.64374 0,1.89301 0,1.89301 -2.44098,0 z m -141.55902,-38 -339,0 0,-1.5 0,-1.5 339,0 339,0 0,1.5 0,1.5 -339,0 z m -199.64829,-53.29422 -19.1483,0.58083 -0.73013,-8.76519 -0.73014,-8.76519 0.68209,-11.62812 c 0.37514,-6.39546 1.35317,-16.35311 2.17339,-22.12811 0.82021,-5.775 2.60325,-15.17833 3.96231,-20.8963 1.35905,-5.71796 4.09347,-15.28046 6.07648,-21.25 l 3.60548,-10.8537 0.72027,0 c 0.39614,0 1.29135,1.9125 1.98935,4.25 0.69799,2.3375 3.50546,9.8607 6.23881,16.71822 2.73336,6.85752 7.2034,17.2036 9.93344,22.99127 2.73004,5.78768 7.7232,15.43258 11.09591,21.43311 3.37271,6.00053 9.37522,15.76399 13.33891,21.69658 l 7.20672,10.78652 -1.5303,0.58723 c -0.84167,0.32298 -6.97658,1.50406 -13.63315,2.62463 l -12.10285,2.03739 -19.14829,0.58083 z m 423.14829,-0.5162 -7,0.49215 -13,-0.73938 -13,-0.73937 -12,-2.14943 c -6.6,-1.18218 -15.375,-3.01472 -19.5,-4.07232 -4.125,-1.05759 -11.325,-3.23003 -16,-4.82763 l -8.5,-2.90474 3.5,-0.53296 c 1.925,-0.29313 11.41208,-1.25737 21.08239,-2.14276 l 17.5824,-1.6098 14.9034,-2.52501 c 8.19687,-1.38876 20.47071,-3.85551 27.27519,-5.48167 6.80448,-1.62616 12.54837,-2.95666 12.7642,-2.95666 0.21583,0 0.38553,6.1875 0.37711,13.75 l -0.0153,13.75 -0.73468,1.09872 -0.73469,1.09872 -7,0.49214 z M 168.39827,455.1171 c -0.33835,0 -3.58729,-3.0375 -7.21988,-6.75 l -6.60469,-6.75 -0.63964,-12.84942 c -0.35181,-7.06719 -0.9081,-16.06719 -1.23622,-20 l -0.59657,-7.15058 7.86773,-1.87394 c 4.32725,-1.03067 15.06773,-4.24722 23.86773,-7.1479 l 16,-5.27396 12.82753,-5.6021 c 7.05514,-3.08116 13.03613,-5.6021 13.29109,-5.6021 0.25496,0 -2.09013,4.99243 -5.21131,11.0943 -3.12118,6.10186 -8.38017,15.21436 -11.68665,20.25 -3.30648,5.03563 -8.73874,12.7557 -12.07169,17.1557 l -6.05991,8 -10.95617,11.25 c -6.0259,6.1875 -11.23301,11.25 -11.57135,11.25 z m -147.69149,-4 c -0.33004,0 0.21891,-1.2375 1.21988,-2.75 1.00097,-1.5125 4.37332,-6.8 7.4941,-11.75 3.12078,-4.95 8.39395,-13.95 11.71815,-20 3.3242,-6.05 8.61968,-16.85 11.76774,-24 3.14806,-7.15 5.9246,-13.225 6.17008,-13.5 0.24549,-0.275 1.98878,1.3 3.87398,3.5 1.8852,2.2 6.49683,8.5 10.24808,14 3.75124,5.5 8.46688,12.83661 10.47919,16.30358 2.01231,3.46696 3.65875,6.65104 3.65875,7.07572 0,0.42468 -4.78,3.61952 -10.62222,7.09964 l -10.62221,6.32749 -11.62779,5.25074 c -6.39528,2.8879 -16.47201,6.86896 -22.39272,8.84678 -5.92072,1.97783 -11.03498,3.59605 -11.36501,3.59605 z m 270.37839,-11.44626 -6.24844,0.60912 -10.5,-5.16925 c -5.775,-2.84308 -14.2125,-7.40993 -18.75,-10.14855 -4.5375,-2.73862 -8.25,-5.23874 -8.25,-5.55584 0,-0.31709 2.31185,-4.44939 5.13745,-9.18288 2.82559,-4.73349 7.18856,-11.53134 9.69549,-15.10634 2.50693,-3.575 7.00492,-9.54883 9.99554,-13.27518 l 5.43749,-6.77518 2.11701,0.5925 c 1.16436,0.32587 10.66702,4.81847 21.11702,9.98354 l 19,9.39105 10.5,6.61217 c 5.775,3.6367 14.4375,9.58924 19.25,13.22788 4.8125,3.63863 8.75,6.88213 8.75,7.20776 0,0.32563 -4.1625,2.02786 -9.25,3.78273 -5.0875,1.75487 -13.3,4.32427 -18.25,5.70978 -4.95,1.38552 -14.5132,3.63702 -21.25156,5.00335 -6.73836,1.36632 -15.06336,2.75832 -18.5,3.09334 z m -139.92513,-4.33241 -0.32331,2.27867 -5.82829,-7 c -3.20556,-3.85 -8.31725,-10.51331 -11.35931,-14.80736 l -5.531,-7.80737 0.68399,-0.69263 c 0.37619,-0.38095 4.36288,-1.44482 8.8593,-2.36415 l 8.17531,-1.67151 0.67974,0.67151 c 0.37386,0.36933 1.64435,7.07111 2.82331,14.89284 l 2.14357,14.22132 -0.32331,2.27868 z m 241.07422,-10.24831 c -0.21864,-0.0148 -3.60578,-1.99991 -7.52697,-4.41127 -3.92119,-2.41136 -12.58178,-7.3585 -19.24574,-10.99366 -6.66397,-3.63516 -18.08072,-9.34475 -25.37056,-12.68798 -7.28984,-3.34324 -18.65426,-8.22887 -25.25426,-10.85696 -6.6,-2.62809 -16.725,-6.45627 -22.5,-8.50706 -5.775,-2.0508 -10.92936,-4.13275 -11.45414,-4.62655 l -0.95414,-0.89783 4.43961,-4.52363 4.43962,-4.52364 6.51452,-1.93352 c 3.58299,-1.06344 11.17456,-3.05901 16.87016,-4.4346 5.69559,-1.37559 15.82059,-3.42255 22.5,-4.54881 6.6794,-1.12626 18.2155,-2.68148 25.63577,-3.45605 l 13.4914,-1.4083 0.73642,1.16842 c 0.40503,0.64263 3.21007,8.66283 6.23342,17.82266 l 5.49701,16.65423 2.50036,12.34886 2.50036,12.34886 0.67234,8.74691 c 0.36979,4.81079 0.49346,8.73476 0.27482,8.71992 z M 12.8901,421.1171 l -1.38656,0 -1.8334,-2.36588 c -1.00838,-1.30123 -4.92012,-5.91373 -8.69276,-10.25 -3.77264,-4.33627 -9.8804,-12.15912 -13.57278,-17.38412 -3.69239,-5.225 -8.9933,-13.325 -11.7798,-18 -2.7865,-4.675 -7.07836,-12.55 -9.53747,-17.5 l -4.4711,-9 2.91016,-6.5 c 1.60059,-3.575 5.1955,-10.63905 7.98869,-15.69789 l 5.07853,-9.19789 7.12156,3.56023 c 3.91686,1.95812 10.94656,5.8566 15.62156,8.66329 4.675,2.80669 13.675,9.01469 20,13.79555 l 11.5,8.69248 10.39055,9.84486 10.39056,9.84487 -4.26861,6.99725 c -2.34773,3.84849 -7.01916,10.82225 -10.38095,15.49725 -3.36179,4.675 -10.06768,13.1125 -14.90199,18.75 l -8.78964,10.25 -1.38655,0 z m 113.03112,-18 c -0.30767,0 -1.77055,-1.9125 -3.25085,-4.25 -1.48029,-2.3375 -5.71095,-10.55 -9.40145,-18.25 l -6.71002,-14 -3.48032,-10 c -1.91417,-5.5 -4.73026,-15.08641 -6.25796,-21.30312 l -2.77764,-11.30313 0.95607,-0.95607 c 0.52585,-0.52585 5.20444,-2.01577 10.39688,-3.31095 5.19244,-1.29518 10.87639,-2.62441 12.63101,-2.95384 l 3.19021,-0.59897 3.93672,10.21304 c 2.1652,5.61717 5.61433,15.38804 7.66474,21.71304 2.05041,6.325 5.70579,19.34446 8.12307,28.93212 2.41728,9.58767 4.39505,17.96834 4.39505,18.62372 l 0,1.19159 -9.42806,3.12628 c -5.18543,1.71946 -9.67978,3.12629 -9.98745,3.12629 z m 26.25744,-9 c -0.46306,0 -0.84193,-0.43279 -0.84193,-0.96176 0,-0.52896 -0.90611,-8.06646 -2.01359,-16.75 -1.10747,-8.68353 -3.37049,-23.58416 -5.02893,-33.11251 -1.65844,-9.52834 -3.64372,-20.01786 -4.41173,-23.31004 l -1.39639,-5.98577 1.6147,-0.61962 1.61469,-0.61962 6.06062,3.31083 c 3.33335,1.82095 11.23563,6.67979 17.56063,10.79741 6.325,4.11762 14.65,9.99711 18.5,13.06555 3.85,3.06843 10.9375,9.15352 15.75,13.52242 4.8125,4.3689 8.75,8.28397 8.75,8.70015 0,0.41618 -4.6112,3.84061 -10.2471,7.60983 l -10.24711,6.85313 -17.41096,8.75 c -9.57603,4.8125 -17.78983,8.75 -18.2529,8.75 z m 82.32242,-39.32919 -0.6831,1.22064 -7.99063,-5.51287 c -4.39484,-3.03208 -12.71562,-8.36698 -18.49062,-11.85532 -5.775,-3.48835 -16.8,-9.48287 -24.5,-13.32115 -7.7,-3.83829 -16.475,-8.00253 -19.5,-9.25387 -3.025,-1.25134 -5.95,-2.69963 -6.5,-3.21843 l -1,-0.94326 19.5,0.50086 19.5,0.50087 12.45823,2.20062 12.45824,2.20062 11.04176,3.16614 11.04177,3.16615 -0.21892,4.50444 -0.21893,4.50445 -3.10735,10.45974 c -1.70904,5.75285 -3.41475,11.00902 -3.79045,11.68037 z m 74.43298,-4.76514 -5.59733,0.75957 0,-0.77834 c 0,-0.42809 3.7125,-3.67423 8.25,-7.21366 4.5375,-3.53942 12.525,-9.19944 17.75,-12.57781 5.225,-3.37838 13.46269,-8.19111 18.30598,-10.69496 l 8.80597,-4.55245 1.30438,1.08254 c 0.71741,0.5954 4.57716,7.49209 8.57722,15.32599 l 7.27283,14.24345 -12.88319,0.68263 c -7.08575,0.37544 -20.37689,1.19581 -29.53586,1.82304 -9.15896,0.62724 -19.17146,1.48223 -22.25,1.9 z"
       id="path3448"
       style="fill:#d5d5d5" />
    <path
       d="m 161.0034,566.86856 -338.66667,0.25146 0,-1.50146 0,-1.50146 339.08333,0 339.08334,0 -0.41667,1.25 -0.41666,1.25 -338.66667,0.25146 z m -275.4155,-16.81332 -1.89673,2.34237 -2.52133,-4.39025 c -1.38672,-2.41464 -4.24373,-7.62048 -6.3489,-11.56853 l -3.82759,-7.17826 -2.07831,-0.74918 -2.07831,-0.74917 5.36057,-0.37865 5.36057,-0.37866 0.61047,0.61047 0.61047,0.61047 -1.11244,0.69562 -1.11244,0.69563 4.2664,8.47642 4.2664,8.47641 4.17814,-8.30992 4.17815,-8.30991 -1.17559,-1.4165 -1.17559,-1.4165 5.18146,0 5.181464,0 -0.618034,1 c -0.339919,0.55 -1.22764,1 -1.97271,1 l -1.35468,0 -5.01235,9.29789 c -2.7568,5.11384 -5.86588,10.35195 -6.90909,11.64025 z m 56.72531,1.90843 -4.97648,-0.0386 0,-0.90401 c 0,-0.49716 0.45,-0.90396 1,-0.90396 l 1,0 0,-10.13976 0,-10.13975 -1.75,-1.39427 -1.75,-1.39427 9.14646,0.28402 9.14645,0.28403 2.10355,1.90499 2.10354,1.90499 0,2.17069 0,2.1707 -2.40171,2.25629 -2.4017,2.25629 -4.25138,0.57022 -4.25138,0.57023 0.7121,-1.1522 0.7121,-1.1522 2.38428,0 2.38428,0 1.48127,-2.1148 1.48126,-2.1148 -0.61259,-1.6352 c -0.33692,-0.89936 -1.31547,-2.18339 -2.17456,-2.8534 l -1.56197,-1.21819 -2.75,-0.0318 -2.75,-0.0318 0,10.5 0,10.5 2.05902,0 2.05901,0 -0.58253,0.94256 -0.58253,0.94256 -4.97649,-0.0385 z m 62.75802,-0.24165 c -2.87897,0.14679 -6.022,0.0377 -6.9845,-0.24234 l -1.75,-0.50923 0,-2.36766 0,-2.36766 0.88631,-0.54777 0.88631,-0.54777 0.50816,1.94322 0.50816,1.94321 2.74596,0.6892 2.74596,0.68919 2.60957,-0.91378 2.60957,-0.91378 0.32035,-2.23601 0.32036,-2.236 -3.24549,-1.74387 c -1.78502,-0.95913 -4.80944,-3.13079 -6.72092,-4.8259 l -3.47543,-3.08204 0.62659,-2.49653 0.62659,-2.49652 2.57103,-1.17144 2.57103,-1.17144 4.95294,0 4.95295,0 0,2.65499 0,2.65499 -1.82874,-1.65499 -1.82874,-1.65499 -2.58947,0 c -1.42421,0 -3.30128,0.27314 -4.17126,0.60699 l -1.58179,0.60699 0.028,1.64301 0.028,1.64301 6.22197,4 6.22196,4 0.29852,3.0511 0.29853,3.0511 -2.06402,1.86791 -2.06402,1.86792 -5.23451,0.26689 z m 57.73488,0.18116 -5.51418,-0.0496 -0.53662,-0.86826 -0.53661,-0.86827 1.55901,0 1.55902,0 0,-12.13976 0,-12.13975 -1.75,-1.32844 -1.75,-1.32844 10.75,-0.0318 10.75,-0.0318 0,1.83333 c 0,1.00834 -0.2961,2.12943 -0.65799,2.49133 l -0.65799,0.65799 -1.1929,-0.99002 -1.19289,-0.99001 -4.64912,-0.63724 -4.64911,-0.63723 0,5.13593 0,5.13592 5.86133,0 5.86133,0 -0.4913,2.57003 -0.49129,2.57004 -1.07004,-1.07004 -1.07003,-1.07003 -4.3,0 -4.3,0 0.0137,3.75 c 0.008,2.0625 0.285,4.7625 0.61664,6 l 0.60297,2.25 1.94239,0 1.94238,0 -0.56724,0.91782 -0.56724,0.91781 -5.51417,-0.0496 z m 59.54291,-0.0169 -5.01229,0 0,-0.80128 c 0,-0.44071 0.5625,-0.98865 1.25,-1.21765 l 1.25,-0.41636 0.35569,-9.33294 0.3557,-9.33295 -2.3557,-1.8782 -2.35569,-1.8782 9.14646,0.29417 9.14645,0.29418 2.10355,1.90499 2.10354,1.90499 0,2.21015 0,2.21015 -1.9798,2.51691 -1.9798,2.51691 4.93696,4.61795 4.93696,4.61795 2.04284,0 2.04284,0 0,1 0,1 -2.59887,0 -2.59887,0 -3.24239,-1.53861 -3.24239,-1.53862 -3.35491,-3.46138 -3.3549,-3.46139 -2.80384,0 -2.80383,0 0,4 0,4 2.05902,0 2.05901,0 -0.54672,0.88462 -0.54672,0.88461 -5.0123,0 z m 6.0152,-11.84818 c 0.84013,0.0434 2.52763,-0.62157 3.75,-1.47775 l 2.22251,-1.55666 0,-1.94329 0,-1.9433 -2,-2 -2,-2 -3,0 -3,0 0,4.91667 0,4.91666 1.25,0.50439 c 0.6875,0.27741 1.93737,0.53991 2.77749,0.58333 z m 62.61191,11.67922 -8.6394,0.10027 0,-0.76694 c 0,-0.42181 0.5625,-0.9543 1.25,-1.1833 l 1.25,-0.41636 0.35569,-9.33294 0.3557,-9.33295 -2.3557,-1.81179 -2.35569,-1.81179 9.75,-0.0222 9.75,-0.0222 0,1.94098 0,1.94099 -0.91459,0.56524 -0.91459,0.56525 -0.35691,-1.07074 -0.35692,-1.07074 -4.22849,-0.56716 -4.2285,-0.56716 0,4.66611 0,4.66612 5,-0.66328 5,-0.66327 0,2.62883 0,2.62883 -1,0 c -0.55,0 -1,-0.45 -1,-1 l 0,-1 -4.0575,0 -4.0575,0 0.3075,4.25 0.3075,4.25 4.40089,0.31487 4.40089,0.31487 0.79474,-1.28591 0.79473,-1.28591 0.76901,0.769 0.769,0.76901 -1.07523,1.70203 -1.07522,1.70204 -8.63941,0.10027 z m 60.06161,-0.025 -8.79899,0.0752 -0.44527,-0.72046 -0.44526,-0.72045 1.49425,-0.5734 1.49426,-0.5734 0,-10.03139 0,-10.03138 -1.5,0 -1.5,0 0,-1 0,-1 9,0 9,0 0,1.94098 0,1.94099 -0.91459,0.56524 -0.91459,0.56525 -0.34327,-1.02981 -0.34327,-1.0298 -3.74214,-0.60727 -3.74214,-0.60726 0,4.58372 0,4.58373 4.88536,-0.5786 4.88536,-0.5786 -0.51533,2.69575 -0.51532,2.69575 -1.07004,-1.07004 -1.07003,-1.06997 -3.3,0 -3.3,0 0,4.5 0,4.5 4.3,0 4.3,0 1.28468,-1.25 1.28467,-1.25 -0.33467,2.5 -0.33468,2.5 -8.79899,0.0752 z m 112.35786,0.32141 c -3.05738,-0.0568 -7.25958,-0.55467 -9.33823,-1.10629 l -3.77936,-1.00293 -2.84469,-2.84469 -2.84469,-2.84469 -0.55969,-2.79902 -0.55969,-2.79903 1.68374,-3.43547 1.68374,-3.43546 2.81751,-2.06019 2.8175,-2.06018 7.94101,-0.36062 7.941,-0.36062 2.32176,0.58272 2.32175,0.58272 -0.44675,3.04389 -0.44675,3.04388 -2.33576,-2.52034 -2.33577,-2.52031 -5.59741,0 -5.59741,0 -2.86705,1.48261 -2.86705,1.48261 -1.14827,3.47931 -1.14828,3.47932 1.64226,3.4608 1.64226,3.4608 3.32385,1.57728 3.32386,1.57727 5.54217,0 5.54216,0 1.3964,-1.99364 1.3964,-1.99364 0.5914,0.59141 0.59141,0.5914 -0.57084,1.65224 c -0.31396,0.90872 -1.26896,2.21473 -2.12223,2.90223 l -1.55139,1.25 -5.55887,-0.10335 z m 62.21257,-0.015 c -4.82429,-0.0651 -10.08189,-0.40258 -11.68354,-0.75 l -2.91211,-0.63169 7.91211,-9.0327 c 4.35165,-4.96798 8.58653,-9.87396 9.41083,-10.90216 l 1.49873,-1.86947 -7.42367,0.53116 -7.42366,0.53116 -1.39677,1.87101 -1.39676,1.871 0.3217,-3 0.3217,-3 11.25,-0.28275 11.25,-0.28275 0,0.79763 c 0,0.4387 -3.88988,5.29094 -8.64418,10.78275 l -8.64418,9.98512 7.3722,0.29841 7.37219,0.29841 1.26165,-1.72541 1.26166,-1.72541 0.67277,0.67277 0.67277,0.67278 -1.141,2.50422 -1.141,2.50423 -8.77144,-0.11831 z m -122.9373,-1.0745 -2.14542,0.30718 -0.65338,-1.05718 -0.65337,-1.05713 0.61803,-1 0.61803,-1 2.51431,0 2.51431,0 -0.33354,1.75 -0.33354,1.75 -2.14543,0.30719 z m -141.66747,-38.05567 -338.66667,0.25146 0,-1.50146 0,-1.50146 339.08333,0 339.08334,0 -0.41667,1.25 -0.41666,1.25 -338.66667,0.25146 z m -205.53749,-52.75146 -12.94964,0 -0.73203,-8.75 -0.73203,-8.75 1.16398,-16 1.16398,-16 2.46058,-12.5 2.46058,-12.5 4.69785,-14.76985 4.69785,-14.76985 0.70131,0.76985 c 0.38572,0.42342 2.16854,4.81985 3.96184,9.76985 1.79329,4.95 5.25511,13.68674 7.69293,19.41498 2.43782,5.72824 6.85295,15.24143 9.81141,21.14042 2.95845,5.899 7.72429,14.71226 10.59075,19.58502 2.86646,4.87277 7.88055,12.84395 11.14244,17.71375 l 5.93069,8.85416 -0.84584,0.78002 c -0.4652,0.42901 -4.89583,1.48924 -9.84583,2.35605 -4.95,0.86682 -13.36976,2.04394 -18.71059,2.61582 l -9.71058,1.03978 -12.94965,0 z m 429.87082,-0.83358 -6.5,0.47072 -13,-0.73097 -13,-0.73097 -10,-1.6213 c -5.5,-0.89172 -14.5,-2.74359 -20,-4.11527 -5.5,-1.37168 -13.58084,-3.67455 -17.95742,-5.11749 l -7.95742,-2.62354 1.95742,-0.70527 c 1.07658,-0.38789 6.68242,-1.02005 12.45742,-1.40479 5.775,-0.38473 17.19084,-1.58902 25.36854,-2.6762 8.1777,-1.08718 19.6527,-2.89141 25.5,-4.00939 5.8473,-1.11799 14.98801,-3.12829 20.31268,-4.46733 5.32467,-1.33904 9.93717,-2.43462 10.25,-2.43462 l 0.56878,0 -0.0153,13.75 -0.0153,13.75 -0.73468,1.09785 -0.73469,1.09784 -6.5,0.47073 z m -209.32824,-11.27407 -7.50541,7.39235 -6.92525,-6.89235 -6.92526,-6.89235 -1.13931,-19.46861 -1.13932,-19.4686 0.7314,-0.62226 c 0.40226,-0.34225 4.78139,-1.65944 9.73139,-2.9271 4.95,-1.26766 15.35408,-4.46395 23.12017,-7.10288 7.7661,-2.63892 19.8036,-7.23775 26.75,-10.21962 l 12.62983,-5.42158 0,1.02894 c 0,0.56592 -2.50924,5.79282 -5.57608,11.61533 -3.06685,5.82251 -8.89519,15.54897 -12.95187,21.61436 -4.05667,6.0654 -10.95758,15.2904 -15.33533,20.5 -4.37776,5.20961 -11.33699,12.79858 -15.46496,16.86437 z M 20.61056,451.1171 c -0.27712,0 0.17912,-1.04234 1.01386,-2.31632 0.83474,-1.27397 4.04313,-6.19065 7.12975,-10.92595 3.08662,-4.7353 8.71252,-14.29853 12.50199,-21.25164 3.78947,-6.95311 9.29534,-18.22586 12.23526,-25.05056 2.93992,-6.8247 5.65349,-12.41911 6.03016,-12.43204 0.37667,-0.0129 4.08251,4.48694 8.23521,9.99969 4.15269,5.51275 10.25701,14.60116 13.56515,20.19647 3.30813,5.59531 6.01479,10.43634 6.01479,10.75786 0,0.32152 -3.9375,2.90969 -8.75,5.75151 -4.8125,2.84181 -14.375,7.86453 -21.25,11.16159 l -12.5,5.99466 -11.86116,4.05737 c -6.52363,2.23155 -12.08789,4.05736 -12.36501,4.05736 z m 266.80128,-11.02042 -2.57511,-0.0204 -9.14358,-4.37013 c -5.02896,-2.40356 -13.45071,-6.94042 -18.71499,-10.08189 l -9.57142,-5.71178 2.36336,-4.64768 c 1.29984,-2.55622 5.16998,-8.92268 8.6003,-14.14768 3.43031,-5.225 9.17369,-13.2125 12.76305,-17.75 3.58937,-4.5375 6.6386,-8.25 6.77608,-8.25 0.13749,0 4.00235,1.60606 8.58859,3.56902 4.58623,1.96296 13.518,6.2461 19.84837,9.51807 6.33036,3.27198 16.44998,9.04152 22.48803,12.82119 6.03805,3.77968 15.1148,9.94026 20.17055,13.69019 l 9.19227,6.81805 -0.4633,0.74964 c -0.25482,0.4123 -5.96096,2.53516 -12.68031,4.71747 -6.71935,2.18231 -16.717,5.103 -22.217,6.49043 -5.5,1.38743 -15.1412,3.44585 -21.42489,4.57427 -6.28369,1.12842 -12.58369,2.04248 -14,2.03125 z m -136.24646,-4.81311 -0.32865,2.30529 -6.25609,-7.66471 c -3.44084,-4.2156 -8.50125,-10.92384 -11.24535,-14.9072 -2.74409,-3.98336 -4.80296,-7.42878 -4.57526,-7.65648 0.2277,-0.2277 4.1631,-1.23637 8.74535,-2.24149 l 8.33135,-1.82749 0.62445,0.6628 c 0.34346,0.36455 1.61635,7.04408 2.82865,14.8434 l 2.20419,14.18059 -0.32864,2.30529 z m 240.98845,-13.92526 -0.3171,3.46718 -11.5,-6.91242 c -6.325,-3.80184 -19.15,-10.68518 -28.5,-15.29631 -9.35,-4.61114 -23.975,-11.25981 -32.5,-14.77482 -8.525,-3.51502 -20.45,-8.11285 -26.5,-10.21741 -6.05,-2.10457 -11.34997,-4.12717 -11.77772,-4.49467 l -0.77772,-0.6682 3.98857,-4.53125 3.98857,-4.53126 10.85313,-3.17169 c 5.96922,-1.74443 17.34934,-4.4741 25.28915,-6.06594 7.93981,-1.59183 20.06102,-3.58552 26.93602,-4.43041 6.875,-0.84489 14.67998,-1.64683 17.3444,-1.78209 l 4.84441,-0.24593 0.93685,1.67407 c 0.51527,0.92074 2.53519,6.07639 4.4887,11.45701 1.95351,5.38061 5.04973,15.63293 6.88049,22.78293 1.83076,7.15 4.07356,17.78665 4.98401,23.63701 l 1.65534,10.63701 -0.3171,3.46719 z M 13.25346,421.1171 c -0.37808,0 -3.369,-2.86662 -6.6465,-6.37028 -3.27749,-3.50365 -8.89669,-10.14115 -12.48711,-14.75 -3.59041,-4.60884 -9.47311,-12.88396 -13.07267,-18.38914 -3.59955,-5.50517 -9.28194,-15.22101 -12.62754,-21.59074 l -6.08291,-11.58133 0,-1.88829 0,-1.8883 6.04148,-12.02096 c 3.32281,-6.61153 6.90634,-13.14596 7.96338,-14.52096 l 1.9219,-2.5 8.34428,4.24051 c 4.58935,2.33227 13.71833,7.75983 20.28662,12.06123 l 11.94234,7.82074 9,7.54691 c 4.95,4.15081 12.2625,10.8133 16.25,14.80554 l 7.25,7.25862 0,1.1621 c 0,0.63916 -2.67492,5.29842 -5.94427,10.3539 -3.26935,5.05549 -8.25341,12.24249 -11.07568,15.97112 -2.82227,3.72863 -8.56141,10.71683 -12.75365,15.52933 -4.19224,4.8125 -7.93159,8.75 -8.30967,8.75 z m 113.44469,-18.28911 -1.13857,0.41757 -3.67055,-6.04237 c -2.0188,-3.3233 -6.08526,-11.12239 -9.03658,-17.33131 l -5.36602,-11.28894 -4.43972,-12.98292 c -2.44184,-7.14061 -5.42843,-17.20751 -6.63687,-22.3709 l -2.19716,-9.38797 0.81697,-0.81697 c 0.44934,-0.44934 6.40739,-2.1821 13.24012,-3.8506 6.83274,-1.66849 12.56991,-2.88686 12.74928,-2.70749 0.17937,0.17937 2.60485,6.36172 5.38995,13.73857 2.7851,7.37684 7.04201,20.23965 9.4598,28.58402 2.41779,8.34436 5.51291,20.01409 6.87804,25.93273 1.36513,5.91863 2.27664,11.09353 2.02557,11.49977 -0.25107,0.40623 -4.16431,1.965 -8.69608,3.46392 -4.53178,1.49892 -8.75196,2.91322 -9.37818,3.14289 z m 27.9513,-9.96362 -3.18727,1.10496 -0.65079,-5.67612 c -0.35794,-3.12186 -1.75235,-13.67306 -3.09869,-23.44711 -1.34634,-9.77405 -3.77823,-24.62405 -5.4042,-33 -1.62597,-8.37595 -2.95978,-16.0165 -2.96404,-16.979 l -0.008,-1.75 1.65116,0 1.65115,0 12.80296,7.63884 12.80295,7.63884 10.73079,8.05707 10.73079,8.05707 9.41168,9.05409 9.41169,9.05409 -11.2925,7.47827 -11.2925,7.47827 -14.05409,7.09289 c -7.72974,3.90109 -15.48835,7.59012 -17.24136,8.19784 z m 79.94331,-38.24256 -0.75603,1.34869 -6.32427,-4.53877 c -3.47835,-2.49632 -12.25335,-8.12714 -19.5,-12.51293 l -13.17573,-7.97417 -15,-7.21833 c -8.25,-3.97008 -17.025,-8.17836 -19.5,-9.35173 l -4.5,-2.1334 13.78941,-0.062 13.78942,-0.062 9.71058,1.05776 c 5.34083,0.58177 13.98559,1.91828 19.21059,2.97002 5.225,1.05174 14,3.19711 19.5,4.76748 l 10,2.85523 0.2795,1.92475 0.27951,1.92476 -3.52347,12.82801 c -1.93791,7.05541 -3.86369,13.43492 -4.27951,14.1767 z m 75.24397,-4.9236 -7,0.57864 2.5,-2.14579 c 1.375,-1.18018 6.56984,-5.21953 11.54409,-8.97633 4.97425,-3.75681 13.21743,-9.36116 18.31818,-12.45411 5.10074,-3.09296 12.01994,-7.00966 15.37598,-8.70379 l 6.10191,-3.08023 1.81313,2.35025 c 0.99723,1.29264 4.75157,8.20025 8.343,15.35025 l 6.52987,13 -14.26308,0.71183 c -7.84469,0.39151 -20.56308,1.17957 -28.26308,1.75124 -7.7,0.57168 -17.15,1.29979 -21,1.61804 z"
       id="path3446"
       style="fill:#bcbcbc" />
    <path
       d="m 161.33673,566.1171 -339,0 0,-1 0,-1 339,0 339,0 0,1 0,1 -339,0 z m -276.9813,-14.51156 -0.91033,0.56262 -6.05653,-11.37376 -6.05653,-11.37376 -2.24765,-1.08409 -2.24766,-1.08409 6,-0.0524 6,-0.0524 -1.33146,0.84404 -1.33145,0.84405 4.46609,8.88794 4.4661,8.88795 4.35843,-8.78806 4.35843,-8.78806 -1.49307,-0.94393 -1.49307,-0.94393 5,0.007 5,0.007 -2.11503,1.72777 -2.11503,1.72776 -5.67045,10.21291 c -3.11875,5.6171 -6.0801,10.46609 -6.58079,10.77553 z m 120.71687,0.12609 -4.23557,0.3656 -2.25,-0.95784 c -1.2375,-0.52681 -2.25,-1.16054 -2.25,-1.40828 0,-0.24774 0.25979,-1.12745 0.57732,-1.9549 l 0.57732,-1.50447 1.92268,1.92268 1.92268,1.92268 2.56574,0 c 1.41116,0 3.43616,-0.46583 4.5,-1.03518 l 1.93426,-1.03519 0,-1.95227 0,-1.95227 -4.25,-2.6361 c -2.3375,-1.44986 -5.2625,-3.55894 -6.5,-4.68686 l -2.25,-2.05076 0,-1.7531 0,-1.75311 2.63486,-2.07258 2.63486,-2.07258 5.36514,0 5.36514,0 0,2.65499 0,2.65499 -1.90191,-1.72121 -1.9019,-1.7212 -3.8481,0.31622 -3.84809,0.31621 -0.31199,2.19227 -0.31198,2.19226 3.31198,1.67579 c 1.8216,0.92168 4.77449,2.77057 6.56199,4.10863 l 3.25,2.43283 0,2.92606 0,2.92605 -2.51443,1.64752 -2.51443,1.64752 -4.23557,0.3656 z m 357.94933,0.28311 c -2.30169,-0.0563 -5.63613,-0.44716 -7.40985,-0.86858 -1.77372,-0.42142 -4.47372,-1.57904 -6,-2.5725 -1.52628,-0.99345 -3.32324,-2.51509 -3.99325,-3.38142 l -1.21819,-1.57514 -0.0318,-4.38192 -0.0318,-4.38193 3.42216,-3.2275 3.42215,-3.22751 3.20285,-0.64057 c 1.76156,-0.35231 5.50909,-0.63443 8.32784,-0.62692 2.81875,0.008 6.1375,0.285 7.375,0.61664 l 2.25,0.60297 0,2.83792 0,2.83791 -2.56379,-2.56379 -2.56379,-2.56378 -6.86275,0.38778 -6.86276,0.38778 -2.01678,1.82515 -2.01677,1.82515 -0.65064,2.96236 -0.65064,2.96236 1.21162,2.92511 1.21161,2.9251 3.57522,2.20961 3.57523,2.20961 5.3938,0.0492 5.3938,0.0492 1.91332,-2.36078 1.91332,-2.36079 0,2.63554 0,2.63553 -2.5651,0.97525 -2.5651,0.97525 -4.1849,-0.10236 z m -420.6849,-1.09259 -5.5,0.0371 1.25,-0.50439 1.25,-0.50439 0,-10.36697 0,-10.36698 -1.75,-1.09539 -1.75,-1.09539 9.28171,0.35519 9.28172,0.35519 2.09953,2.09953 2.09952,2.09953 -0.64711,2.57833 -0.64712,2.57833 -2.37836,1.55836 -2.37835,1.55835 -3.85577,0.46337 -3.85577,0.46337 3,-1.13956 c 1.65,-0.62676 3.7875,-1.82559 4.75,-2.66407 l 1.75,-1.5245 0,-1.34501 0,-1.34501 -2,-2 -2,-2 -3,0 -3,0 0,10.42668 0,10.42667 1.75,0.45732 1.75,0.45733 -5.5,0.037 z m 120.67857,0.13156 -5.82143,0.0634 1.57143,-1.57143 1.57143,-1.57143 0,-10.87186 0,-10.87187 -2.22251,-1.55671 -2.2225,-1.5567 10.82949,0 10.8295,0 -0.60699,1.58179 c -0.33385,0.86997 -0.60699,2.02711 -0.60699,2.57142 l 0,0.98964 -1.57143,-1.57143 -1.57143,-1.57143 -4.42857,0 -4.42857,0 0,5 0,5 5.86133,0 5.86133,0 -0.48597,2.54219 -0.48597,2.54219 -1.7041,-1.54219 -1.7041,-1.54219 -3.67126,0 -3.67126,0 0,6.03222 0,6.03223 2.25,0.90439 2.25,0.90439 -5.82143,0.0634 z m 59.82143,-0.1032 -6,0.10577 1.75,-1.01928 1.75,-1.01928 0,-9.59007 0,-9.59006 -1.75,-1.41217 -1.75,-1.41217 8.72152,0.37117 8.72152,0.37116 2.02848,1.83575 2.02848,1.83575 0,2.34501 0,2.34501 -2.10508,2.10508 -2.10508,2.10508 4.34667,4.42893 4.34666,4.42893 3.00842,0.8758 3.00841,0.8758 -4.55038,0.0902 -4.55039,0.0902 -5.60987,-5 -5.60987,-5 -2.08975,0 -2.08974,0 0,4.43045 0,4.43045 2.25,0.43337 2.25,0.43337 -6,0.10577 z m 5.33793,-10.83341 2.50459,0 1.82874,-1.65499 1.82874,-1.65499 0,-1.84501 0,-1.84501 -2,-2 -2,-2 -3,0 -3,0 0,4.83333 0,4.83334 0.66667,0.66666 c 0.36666,0.36667 1.79373,0.66667 3.17126,0.66667 z m 63.15064,10.74277 -9.48857,0.24277 1.75,-1.04246 1.75,-1.04246 0,-9.59007 0,-9.59006 -1.75,-1.32844 -1.75,-1.32844 9.35699,-0.0318 9.35699,-0.0318 -0.60699,1.58179 c -0.33385,0.86998 -0.62067,2.10748 -0.6374,2.75 l -0.0304,1.16821 -1.01928,-1.75 -1.01928,-1.75 -3.95031,0 -3.95031,0 0,4.62723 0,4.62723 5,-0.48044 5,-0.48043 0,2.5532 0,2.55321 -1.2,-1.2 -1.2,-1.2 -3.8,0 -3.8,0 0,4.39301 0,4.39301 1.58179,0.60699 c 0.86998,0.33385 2.33248,0.60422 3.25,0.60083 0.91751,-0.003 2.93666,-0.66776 4.48698,-1.47638 l 2.81878,-1.47022 -0.3302,1.72638 -0.3302,1.72638 -9.48858,0.24277 z m 59.76143,0.17828 -9.25,-0.0789 1.25,-0.50439 1.25,-0.50439 0,-10.36697 0,-10.36698 -1.75,-1.01928 -1.75,-1.01928 9.25,-0.0304 9.25,-0.0305 0,2 0,2 -0.94098,0 c -0.51754,0 -1.2191,-0.45 -1.55902,-1 l -0.61803,-1 -3.94099,0 -3.94098,0 0,4.59651 0,4.59652 5.00062,-0.34652 5.00062,-0.34651 -0.0796,2.5 -0.0796,2.5 -0.50439,-1.25 -0.50439,-1.25 -4.47416,0 -4.47417,0 0.3075,4.23144 0.3075,4.23143 2.83128,0.99019 2.83128,0.99019 2.91872,-1.67511 2.91872,-1.67512 0,1.95349 0,1.95349 -9.25,-0.0789 z m 51.58414,-0.11386 -2.14542,0.30718 -0.65338,-1.05718 -0.65337,-1.05719 0.61803,-1 0.61803,-1 2.51431,0 2.51431,0 -0.33354,1.75 -0.33354,1.75 -2.14543,0.30719 z m 120.49021,0.19281 -11.94238,0 0.73782,-1.25 c 0.4058,-0.6875 3.93275,-4.85 7.83766,-9.25 3.90492,-4.4 7.70455,-8.7875 8.44364,-9.75 l 1.3438,-1.75 -6.62245,0 -6.62244,0 -2.07352,2.07352 -2.07351,2.07351 0.32351,-2.82351 0.32352,-2.82352 11.25,-0.28275 11.25,-0.28275 0,0.84853 c 0,0.4667 -3.825,5.19836 -8.5,10.5148 -4.675,5.31644 -8.5,9.89934 -8.5,10.18422 0,0.28487 3.35264,0.51795 7.45031,0.51795 l 7.45031,0 0.97469,-1.74167 0.97468,-1.74167 0.53534,0.53534 0.53534,0.53534 -0.57696,2.20633 -0.57697,2.20633 -11.94239,0 z m -261.82435,-39 -339,0 0,-1 0,-1 339,0 339,0 0,1 0,1 -339,0 z m -207.75,-52.03368 -11.25,0.0337 0.005,-19.25 0.005,-19.25 1.91598,-13.02235 c 1.05379,-7.1623 2.88775,-16.8373 4.07547,-21.5 1.18772,-4.66271 3.721,-13.31515 5.6295,-19.22765 l 3.47001,-10.75 0.69992,0.0111 c 0.38495,0.006 2.87812,5.96858 5.54037,13.25 l 4.83968,13.23895 8.28742,17.14162 c 4.55808,9.42789 10.87953,21.57789 14.04766,27 3.16814,5.42211 8.22218,13.40148 11.23121,17.73194 l 5.47095,7.87357 -1.19547,0.73884 c -0.65751,0.40636 -5.5441,1.49371 -10.85908,2.41632 -5.31499,0.92261 -14.38862,2.09438 -20.16362,2.60392 -5.775,0.50954 -15.5625,0.94159 -21.75,0.96011 z m 422.86071,-1.11615 c -8.58589,-0.0824 -16.96071,-0.31035 -18.61071,-0.50653 -1.65,-0.19619 -6.6,-0.83058 -11,-1.40976 -4.4,-0.57918 -12.98328,-2.15605 -19.07396,-3.50416 -6.09068,-1.34811 -15.47324,-3.82624 -20.85013,-5.50696 -5.37688,-1.68072 -9.58582,-3.24619 -9.35318,-3.47882 0.23263,-0.23264 6.24019,-0.90146 13.35012,-1.48628 7.10993,-0.58482 20.80215,-2.17968 30.42715,-3.54413 l 17.5,-2.48082 15.78262,-3.51026 c 8.68044,-1.93064 16.44294,-3.76364 17.25,-4.07334 l 1.46738,-0.56309 -0.009,9.85699 c -0.005,5.42135 -0.29246,12.21949 -0.63929,15.10699 l -0.6306,5.25 -15.61071,-0.14983 z m -200.84999,-10.54695 -6.91818,6.80323 -6.85724,-6.37006 -6.85724,-6.37005 -0.7485,-13.93317 c -0.41167,-7.66324 -1.03642,-16.72338 -1.38832,-20.13364 l -0.63982,-6.20047 5.82429,-1.61339 c 3.20336,-0.88736 10.54929,-3.00146 16.32429,-4.69798 5.775,-1.69652 15.9,-5.10253 22.5,-7.56889 6.6,-2.46637 15.7125,-6.19549 20.25,-8.28694 l 8.25,-3.80264 0,1.10221 c 0,0.60621 -2.28904,5.41464 -5.08676,10.68539 -2.79773,5.27075 -8.82762,15.20818 -13.39977,22.08318 l -8.31299,12.5 -8.01079,9.5 c -4.40594,5.225 -11.12398,12.56145 -14.92897,16.30322 z m -151.53685,1.40201 -3.17709,0.63541 1.93592,-2.92032 c 1.06476,-1.60618 4.7746,-7.42032 8.24409,-12.92032 l 6.30817,-10 8.27844,-16.5 c 4.55314,-9.075 9.51737,-19.425 11.03163,-23 l 2.75319,-6.5 2.96132,3.5 c 1.62872,1.925 6.49491,8.675 10.81375,15 4.31884,6.325 9.29968,14.07435 11.06854,17.22077 l 3.2161,5.72077 -6.32897,4.11925 c -3.48093,2.26559 -12.62896,7.20138 -20.32896,10.96844 -7.7,3.76706 -18.40979,8.46726 -23.79953,10.44489 -5.38973,1.97763 -11.22921,3.88163 -12.9766,4.23111 z m 266.27613,-10.16167 -5.5,0.59683 -12.5,-6.37274 c -6.875,-3.50501 -15.31501,-8.16894 -18.75557,-10.36431 l -6.25557,-3.99156 6.05022,-10.23321 6.05022,-10.23321 9.01279,-11.97268 c 4.95703,-6.58497 9.22628,-11.97268 9.48722,-11.97268 0.26094,0 5.95167,2.48674 12.64607,5.52609 6.6944,3.03934 17.14255,8.28029 23.21813,11.64654 6.07557,3.36625 15.99649,9.37752 22.04649,13.35839 6.05,3.98086 13.63358,9.28962 16.85241,11.79725 l 5.8524,4.55931 -3.8524,1.62175 c -2.11883,0.89195 -9.70241,3.3956 -16.85241,5.56366 l -13,3.94191 -14.5,2.96591 c -7.975,1.63126 -16.975,3.23449 -20,3.56275 z M 151.06541,437.1171 c -0.27597,0 -2.97629,-3.0375 -6.00071,-6.75 -3.02443,-3.7125 -8.03706,-10.30092 -11.13918,-14.64094 -3.10213,-4.34002 -5.44884,-8.08234 -5.21492,-8.31626 0.23392,-0.23392 4.3026,-1.23303 9.04151,-2.22025 l 8.61619,-1.79493 0.46904,2.11119 c 0.25797,1.16115 1.12466,6.16119 1.92599,11.11119 0.80132,4.95 1.76,11.5875 2.1304,14.75 0.3704,3.1625 0.44765,5.75 0.17168,5.75 z m 241.10295,-14.27717 -0.33163,1.90718 -9.5,-5.80188 c -5.225,-3.19103 -16.475,-9.36259 -25,-13.71458 -8.525,-4.35199 -21.93109,-10.6881 -29.7913,-14.08024 -7.86022,-3.39215 -21.13522,-8.63339 -29.5,-11.64721 -8.36479,-3.01382 -15.80316,-5.68176 -16.52973,-5.92876 l -1.32104,-0.44909 1.97327,-2.75412 c 1.0853,-1.51477 3.04291,-3.75174 4.35026,-4.97104 l 2.37699,-2.2169 12.97077,-3.56444 c 7.13393,-1.96044 18.92895,-4.669 26.21115,-6.01902 7.2822,-1.35002 18.74376,-3.13592 25.47014,-3.96866 6.72637,-0.83274 14.09625,-1.51407 16.3775,-1.51407 l 4.14773,0 3.51179,9.25 c 1.93148,5.0875 4.6867,13.3 6.1227,18.25 1.436,4.95 3.49129,13.275 4.56731,18.5 1.07602,5.225 2.467,13.39602 3.09106,18.15782 0.62406,4.76181 0.98543,9.51606 0.80303,10.56501 z M 13.17532,421.11654 c -0.36377,3.1e-4 -3.45277,-3.03694 -6.86444,-6.74944 -3.41166,-3.7125 -9.91465,-11.7 -14.45108,-17.75 -4.53643,-6.05 -10.49196,-14.6 -13.23451,-19 -2.74255,-4.4 -7.52943,-12.763 -10.63751,-18.58444 l -5.65105,-10.58443 0,-1.77308 0,-1.77309 7.17631,-13.99152 7.17632,-13.99153 1.29569,-0.4972 1.29568,-0.4972 8.778,4.76327 c 4.8279,2.61979 13.053,7.53381 18.278,10.92004 5.225,3.38623 14,9.77525 19.5,14.19782 5.5,4.42257 13.4875,11.52554 17.75,15.78436 l 7.75,7.74333 0,1.20752 c 0,0.66414 -3.41021,6.34679 -7.57825,12.6281 -4.16803,6.28131 -10.11031,14.57675 -13.20504,18.43431 -3.09474,3.85756 -8.12203,9.82599 -11.17176,13.26318 -3.04972,3.4372 -5.84258,6.2497 -6.20636,6.25 z m 117.47812,-19.68492 -5.18329,1.53806 -1.40085,-2.17629 c -0.77047,-1.19696 -3.4998,-6.04567 -6.06517,-10.77491 -2.56538,-4.72924 -6.65727,-13.35547 -9.0931,-19.1694 -2.43582,-5.81393 -5.83105,-14.94845 -7.54496,-20.29893 -1.71391,-5.35048 -4.01038,-13.56302 -5.10327,-18.2501 l -1.98706,-8.52196 0.7805,-0.73345 c 0.42927,-0.4034 5.45955,-1.90212 11.1784,-3.33049 5.71885,-1.42838 11.42223,-2.59705 12.67417,-2.59705 l 2.27626,0 3.97392,10.25 c 2.18566,5.6375 5.82609,15.98772 8.08984,23.00049 2.26376,7.01277 5.64053,18.95959 7.50394,26.54849 1.86341,7.58889 3.5446,15.10984 3.73599,16.71321 l 0.34797,2.91522 -4.5,1.67453 c -2.475,0.92099 -6.83248,2.36665 -9.68329,3.21258 z m 28.5408,-10.75421 -7.6425,3.2718 -0.66551,-6.66605 c -0.36603,-3.66634 -1.79452,-14.50635 -3.17441,-24.08893 -1.37989,-9.58258 -3.85442,-24.38444 -5.49895,-32.89304 l -2.99007,-15.47016 0.98619,-0.98619 0.9862,-0.9862 7.82077,4.28248 c 4.30142,2.35537 11.87077,6.99031 16.82077,10.29988 4.95,3.30957 12.6,8.74086 17,12.06953 4.4,3.32867 11.93054,9.83432 16.73453,14.457 l 8.73452,8.40488 -5.23452,3.72349 c -2.87899,2.04793 -9.73453,6.42865 -15.23453,9.73495 -5.5,3.3063 -12.475,7.26319 -15.5,8.7931 -3.025,1.52991 -8.93912,4.25397 -13.14249,6.05346 z m 74.56009,-35.9258 c -0.50468,0.13543 -6.77634,-3.66443 -13.93702,-8.44414 -7.16068,-4.7797 -18.33301,-11.56672 -24.8274,-15.08227 -6.49438,-3.51554 -17.38443,-8.93933 -24.20011,-12.05286 -6.81567,-3.11353 -12.70584,-5.97468 -13.08927,-6.3581 l -0.69713,-0.69714 11.49299,0 11.49298,0 10.92368,1.06064 10.92368,1.06063 11.86347,2.41346 c 6.52491,1.3274 15.6727,3.57535 20.32842,4.99543 l 8.46496,2.58197 -0.70623,4.19394 c -0.38843,2.30666 -2.1483,9.11879 -3.91082,15.13806 l -3.2046,10.94414 -0.9176,0.24624 z m 70.6324,-4.64677 -1.45,0.0123 0.95,-0.81359 c 0.5225,-0.44747 3.20654,-2.65066 5.96454,-4.89598 2.758,-2.24532 9.958,-7.41763 16,-11.49402 6.042,-4.0764 15.31616,-9.7482 20.60923,-12.60402 5.29307,-2.85581 9.87691,-5.19239 10.1863,-5.19239 0.30939,0 2.76889,3.9375 5.46556,8.75 2.69667,4.8125 6.10034,11.39188 7.5637,14.62084 1.46337,3.22897 2.66067,6.19705 2.66067,6.59575 l 0,0.7249 -18.25,0.68747 c -10.0375,0.37811 -25,1.34201 -33.25,2.142 -8.25,0.79999 -15.6525,1.46004 -16.45,1.46678 z"
       id="path3444"
       style="fill:#949494" />
    <path
       d="m 161.33673,566.1171 -339,0 0,-1 0,-1 339,0 339,0 0,1 0,1 -339,0 z m -277.00887,-14.49452 -0.8428,0.52088 -6.17922,-11.58427 -6.17922,-11.58426 -2.14495,-0.86553 -2.14494,-0.86553 6,-0.0481 6,-0.0481 -1.33146,0.84404 -1.33145,0.84405 4.43982,8.83566 4.43983,8.83567 4.16647,-7.44503 4.16648,-7.44502 -0.38617,-2.25 -0.38618,-2.25 4.11133,0.0304 4.11133,0.0304 -1.728,1.00697 -1.728,1.00696 -6.10503,10.95493 c -3.35777,6.02521 -6.4843,11.18932 -6.94784,11.4758 z m 120.74444,0.10905 -4.23557,0.3656 -2.25,-0.95784 c -1.2375,-0.52681 -2.25,-1.16054 -2.25,-1.40828 0,-0.24774 0.25979,-1.12745 0.57732,-1.9549 l 0.57732,-1.50447 1.92268,1.92268 1.92268,1.92268 3.3,0 3.3,0 1.2,-1.2 1.2,-1.2 0,-1.81242 0,-1.81242 -5.47151,-3.50008 -5.4715,-3.50008 -1.06368,-1.9875 -1.06368,-1.9875 1.0581,-1.97708 c 0.58196,-1.0874 1.91821,-2.4374 2.96945,-3 l 1.91134,-1.02292 5.06574,0 5.06574,0 0,2.69113 0,2.69113 -1.28626,-1.75907 -1.28627,-1.75907 -4.46373,0.31794 -4.46374,0.31794 -0.31372,2.20549 -0.31372,2.20549 5.58651,3.15283 5.5865,3.15283 0.97722,1.82594 c 0.53746,1.00426 0.97721,2.74515 0.97721,3.86863 l 0,2.04268 -2.51443,1.64752 -2.51443,1.64752 -4.23557,0.3656 z m 357.94933,0.31582 -4.1849,-0.0696 -4.66595,-1.4361 -4.66594,-1.4361 -2.58406,-3.07098 -2.58405,-3.07097 0,-3.70077 0,-3.70077 1.6325,-2.33072 1.6325,-2.33072 4.1175,-1.86982 4.1175,-1.86983 6,-0.008 c 3.3,-0.005 7.0125,0.26303 8.25,0.59467 l 2.25,0.60297 0,2.83792 0,2.83791 -2.45455,-2.45454 -2.45454,-2.45455 -6.62238,0 -6.62238,0 -2.92307,2.92308 -2.92308,2.92307 0,2.62659 0,2.62658 1.51693,2.93341 1.51692,2.93342 2.96584,1.53369 2.96584,1.5337 4.57672,0.62731 4.57672,0.62731 2.94052,-2.17402 2.94051,-2.17401 0,2.05468 0,2.05469 -2.5651,0.97525 -2.5651,0.97525 -4.1849,-0.0696 z m -420.6849,-1.1253 -5.5,0.0371 1.25,-0.50439 1.25,-0.50439 0,-10.36697 0,-10.36698 -1.75,-1.01928 -1.75,-1.01928 6.5,-0.0248 6.5,-0.0248 3.79902,1.05497 3.79903,1.05496 1.05385,2.31297 1.05386,2.31296 -1.18337,2.21115 -1.18337,2.21116 -3.38739,1.41534 c -1.86307,0.77844 -4.18935,1.37863 -5.16951,1.33377 l -1.78212,-0.0816 3.5,-1.52101 c 1.925,-0.83656 3.83061,-2.03735 4.23469,-2.66843 0.40408,-0.63108 0.74158,-1.70991 0.75,-2.39741 0.0084,-0.68759 -0.88469,-2.15009 -1.98469,-3.25009 l -2,-2 -3,0 -3,0 0,10.42668 0,10.42667 1.75,0.45732 1.75,0.45733 -5.5,0.037 z m 120.67857,0.13156 -5.82143,0.0634 1.57143,-1.57143 1.57143,-1.57143 0,-11.46079 0,-11.4608 -2.25,-0.90439 -2.25,-0.90439 10.85699,-0.0634 10.85699,-0.0634 -0.60699,1.58179 c -0.33385,0.87 -0.60699,2.02714 -0.60699,2.57145 l 0,0.98964 -1.57143,-1.57143 -1.57143,-1.57143 -4.42857,0 -4.42857,0 0,5 0,5 5.5,0 5.5,0 0,2.57143 0,2.57143 -1.57143,-1.57143 -1.57143,-1.57143 -3.92857,0 -3.92857,0 0,6.03222 0,6.03223 2.25,0.90439 2.25,0.90439 -5.82143,0.0634 z m 59.32143,-0.083 -5.5,0.0856 1.75,-1.01928 1.75,-1.01928 0,-9.90062 0,-9.90062 -1.75,-1.09778 -1.75,-1.09778 8.72152,0.36733 8.72152,0.36733 2.02848,1.83575 2.02848,1.83575 0,2.04029 0,2.04029 -2.52053,2.63087 -2.52053,2.63087 5.06735,4.27286 5.06735,4.27285 2.70318,0.81504 2.70318,0.81504 -4.30986,0.086 -4.30986,0.0859 -5.28676,-5 -5.28677,-5 -2.65337,0 -2.65338,0 0,4.42668 0,4.42667 1.75,0.45732 1.75,0.45733 -5.5,0.0856 z m 5.42857,-10.85361 3.42857,0 1.57143,-1.57143 1.57143,-1.57143 0,-2.37186 0,-2.37187 -2.22251,-1.55671 -2.2225,-1.5567 -2.7775,0 -2.77749,0 0,5.5 0,5.5 3.42857,0 z m 63.32143,10.96959 -9.25,-0.0304 1.75,-1.01928 1.75,-1.01928 0,-9.90062 0,-9.90062 -1.75,-1.01928 -1.75,-1.01928 9.25,-0.0304 9.25,-0.0304 -0.0153,0.75 c -0.008,0.4125 -0.40217,1.36054 -0.875,2.10676 l -0.85969,1.35677 -0.68402,-1.10677 -0.68401,-1.10676 -3.94099,0 -3.94098,0 0,4.59651 0,4.59652 5.00062,-0.34652 5.00062,-0.34651 -6.2e-4,1.60321 -6.2e-4,1.6032 -5,-0.48043 -5,-0.48044 0,4.52024 0,4.52024 1.58179,0.60699 c 0.86998,0.33385 2.56985,0.60699 3.77749,0.60699 l 2.19571,0 2.39858,-1.68003 2.39858,-1.68003 -0.67608,1.76182 c -0.37184,0.969 -0.67607,1.95001 -0.67607,2.18003 0,0.23001 -4.1625,0.40453 -9.25,0.3878 z m 59.73875,-0.27614 -8.98875,0.19345 1.25,-0.52678 1.25,-0.52679 0,-10.36697 0,-10.36698 -1.75,-1.01928 -1.75,-1.01928 9.25,-0.0304 9.25,-0.0304 0,2 0,2 -0.94098,0 c -0.51754,0 -1.2191,-0.45 -1.55902,-1 l -0.61803,-1 -3.94099,0 -3.94098,0 0,4.59651 0,4.59652 5.00062,-0.34652 5.00062,-0.34651 -0.0796,2.5 -0.0796,2.5 -0.50439,-1.25 -0.50439,-1.25 -4.41666,0 -4.41667,0 0,3.8 0,3.8 1.2,1.2 1.2,1.2 2.57749,0 2.5775,0 2.31988,-1.62491 2.31989,-1.62491 -0.35863,1.87491 -0.35864,1.87491 -8.98874,0.19345 z m 51.85561,0.11374 -2.15564,0.30718 -0.70723,-1.14432 -0.70723,-1.14431 1.00665,-1.00665 1.00665,-1.00665 1.85622,0.35747 1.85622,0.35748 0,1.48631 0,1.4863 -2.15564,0.30719 z m 120.38408,0.19281 -12.03842,0 1.48462,-1.75 c 0.81654,-0.9625 5.04683,-5.8 9.40065,-10.75 l 7.91603,-9 -6.34445,-0.30028 -6.34445,-0.30028 -2.40121,1.57333 -2.40121,1.57334 0,-0.94127 c 0,-0.5177 0.27314,-1.65307 0.60699,-2.52305 l 0.60699,-1.58179 10.33399,0 10.334,0 0.49467,0.8004 0.49468,0.8004 -8.98486,10.1996 -8.98486,10.1996 8.08058,0 8.08059,0 0.5756,-1.5 c 0.31659,-0.825 0.91506,-1.5 1.32995,-1.5 l 0.75434,0 -0.47791,2.5 -0.4779,2.5 -12.03841,0 z m -261.72844,-39 -339,0 0,-1 0,-1 339,0 339,0 0,1 0,1 -339,0 z m -207.28138,-52.0258 -10.78139,0.0258 -0.58892,-1.53471 -0.58893,-1.53472 0.50402,-21.71528 0.50402,-21.71529 2.09167,-11 c 1.15042,-6.05 3.03395,-14.6 4.18563,-19 1.15167,-4.4 3.46958,-12.1625 5.1509,-17.25 l 3.05695,-9.25 0.71543,0 c 0.39348,0 1.28651,1.9125 1.98451,4.25 0.69799,2.3375 3.42956,9.65 6.07015,16.25 2.64059,6.6 6.67027,16.05 8.95483,21 2.28456,4.95 7.04056,14.20952 10.56888,20.57672 3.52833,6.36719 9.79472,16.69315 13.92532,22.94658 l 7.51019,11.36987 -1.08901,0.67304 c -0.59895,0.37017 -5.65738,1.41512 -11.24094,2.3221 -5.58356,0.90699 -14.65193,2.07905 -20.15193,2.60458 -5.5,0.52553 -14.85162,0.96712 -20.78138,0.98131 z m 422.89209,-1.12403 c -8.31089,-0.0824 -16.46071,-0.31035 -18.11071,-0.50653 -1.65,-0.19619 -6.6,-0.83233 -11,-1.41366 -4.4,-0.58133 -12.275,-1.93195 -17.5,-3.00138 -5.225,-1.06943 -14.78851,-3.58985 -21.25224,-5.60094 -6.46373,-2.01108 -11.63459,-3.77416 -11.49081,-3.91795 0.14379,-0.14378 5.88229,-0.75895 12.75224,-1.36703 6.86995,-0.60809 19.38412,-2.00194 27.80928,-3.09746 l 15.31847,-1.99184 14.18153,-2.97489 c 7.79984,-1.6362 16.51691,-3.60282 19.37127,-4.37029 l 5.18974,-1.39538 0.56026,0.56025 c 0.30814,0.30815 0.55635,4.64776 0.55157,9.6436 -0.005,4.99583 -0.29246,11.44583 -0.63929,14.33333 l -0.6306,5.25 -15.11071,-0.14983 z m -198.81785,-13.35118 -9.29286,9.6257 -6.93703,-7.02592 -6.93703,-7.02592 -0.74271,-13.28642 c -0.40848,-7.30754 -1.00978,-16.07877 -1.33622,-19.49162 l -0.59353,-6.2052 4.27326,-1.11965 c 2.35029,-0.61581 8.99826,-2.47813 14.77326,-4.13849 5.775,-1.66035 16.125,-5.05238 23,-7.53782 6.875,-2.48544 16.6625,-6.46257 21.75,-8.83806 l 9.25,-4.31907 0,0.73297 c 0,0.40313 -2.30378,5.20992 -5.11951,10.68174 -2.81573,5.47182 -7.87823,14.22251 -11.25,19.44596 -3.37177,5.22346 -9.5987,13.85745 -13.83763,19.18664 -4.23893,5.3292 -11.88893,14.02102 -17,19.31516 z m -156.01903,4.50101 -1.00385,0 1.82432,-2.75 c 1.00338,-1.5125 4.67455,-7.25 8.15815,-12.75 l 6.33382,-10 8.7623,-17.5 c 4.81926,-9.625 9.76621,-19.96187 10.99322,-22.97083 l 2.23092,-5.47083 2.428,2.97083 c 1.33541,1.63396 4.90338,6.37451 7.92885,10.53456 3.02546,4.16006 8.20045,11.9915 11.49997,17.4032 l 5.99915,9.83946 -0.52532,0.84998 c -0.28893,0.46749 -4.81617,3.37528 -10.06054,6.46176 -5.24438,3.08648 -14.12436,7.77646 -19.73329,10.42219 -5.60894,2.64572 -15.51567,6.644 -22.01496,8.88504 -6.49929,2.24105 -12.26862,4.07464 -12.82074,4.07464 z M 286.4572,440.08856 c -0.89126,-0.0157 -7.92047,-3.29465 -15.62047,-7.28656 -7.7,-3.99191 -15.9125,-8.48471 -18.25,-9.984 l -4.25,-2.72599 0,-1.05938 c 0,-0.58267 1.21288,-3.16452 2.69529,-5.73746 1.4824,-2.57294 5.72846,-9.23243 9.43567,-14.79886 3.70721,-5.56643 9.09612,-12.99143 11.97534,-16.5 2.87923,-3.50856 5.32405,-6.50758 5.43293,-6.66447 0.10888,-0.1569 5.63766,2.20374 12.28618,5.24586 6.64852,3.04212 16.53732,7.96083 21.97511,10.93046 5.4378,2.96964 13.66973,7.76428 18.29319,10.65476 4.62346,2.89048 12.58739,8.35052 17.69761,12.13343 l 9.29132,6.87801 -0.55118,0.89183 c -0.30315,0.49051 -6.05924,2.71713 -12.79132,4.94803 -6.73208,2.23091 -16.96514,5.19658 -22.74014,6.59038 -5.775,1.3938 -15.62079,3.42931 -21.87953,4.52334 -6.25874,1.09404 -12.10874,1.97632 -13,1.96062 z M 151.14787,436.6393 c -0.24301,0.24301 -2.929,-2.58757 -5.96886,-6.29018 -3.03986,-3.70261 -8.07624,-10.29123 -11.19195,-14.64139 -3.11571,-4.35015 -5.51865,-8.05564 -5.33986,-8.23443 0.17878,-0.17879 3.80785,-1.04532 8.06459,-1.92564 l 7.73953,-1.60057 1.27629,0.48976 1.27629,0.48976 2.2929,15.63542 c 1.2611,8.59949 2.09408,15.83425 1.85107,16.07727 z m 241.05635,-11.61408 c -0.20212,-0.0505 -4.19249,-2.52284 -8.86749,-5.49402 -4.675,-2.97119 -16.825,-9.64127 -27,-14.82241 l -18.5,-9.42026 -15.65297,-6.51464 c -8.60913,-3.58305 -21.53072,-8.63315 -28.71464,-11.22244 l -13.06166,-4.7078 4.04327,-4.5934 4.04327,-4.5934 9.17137,-2.77025 c 5.04425,-1.52364 15.66295,-4.13245 23.59711,-5.79735 l 14.42575,-3.0271 15.3625,-1.97253 c 8.44937,-1.08489 17.09846,-1.97252 19.22019,-1.97252 l 3.85771,0 4.18028,11.75 c 2.29916,6.4625 5.27261,15.8 6.60766,20.75 1.33506,4.95 3.28807,13.5 4.34002,19 1.05196,5.5 2.2282,13.4875 2.61388,17.75 0.38568,4.2625 0.53587,7.70866 0.33375,7.65812 z m -375.62265,-7.60265 -3.94277,3.80546 -5.3227,-5.80546 c -2.92749,-3.19301 -8.02097,-9.18047 -11.31885,-13.30547 -3.29788,-4.125 -9.24607,-12.45 -13.2182,-18.5 -3.97213,-6.05 -9.42938,-15.05 -12.12721,-20 -2.69784,-4.95 -5.75457,-10.94317 -6.79274,-13.31816 l -1.88759,-4.31815 6.65754,-13.20643 c 3.66165,-7.26354 7.29334,-14.07594 8.07042,-15.13866 l 1.41288,-1.93222 8.36219,4.36037 c 4.5992,2.39821 11.96219,6.60515 16.36219,9.34877 4.4,2.74362 12.16573,8.10853 17.25719,11.92202 l 9.25718,6.93362 10.99282,10.53375 c 6.04604,5.79356 10.99281,10.99218 10.99281,11.55249 0,0.56031 -3.29367,6.02362 -7.31927,12.14068 -4.0256,6.11705 -10.95839,15.62192 -15.4062,21.12192 -4.44781,5.5 -9.86117,11.71246 -12.02969,13.80547 z m 118.51902,-17.73028 -9.73615,3.27357 -5.41579,-9.67438 c -2.97868,-5.32091 -7.44451,-14.43741 -9.92407,-20.25889 -2.47955,-5.82148 -5.9304,-14.82148 -7.66853,-20 -1.73814,-5.17852 -4.24691,-13.89303 -5.57504,-19.36559 l -2.41478,-9.9501 1.16911,-0.72255 c 0.64301,-0.3974 5.79768,-1.88236 11.45481,-3.2999 5.65713,-1.41754 11.16607,-2.57735 12.24207,-2.57735 l 1.95638,0 4.10194,10.61969 c 2.25608,5.84083 6.07056,16.97833 8.47663,24.75 2.40607,7.77167 5.733,19.75531 7.39319,26.63031 1.66018,6.875 3.16653,13.58036 3.34744,14.90081 l 0.32893,2.40081 -9.73614,3.27357 z m 19.12367,-7.07065 -2.61248,0.64324 -0.68205,-6.32389 c -0.37513,-3.47814 -1.80761,-14.19889 -3.18328,-23.82389 -1.37568,-9.625 -3.86043,-24.43003 -5.52167,-32.90007 l -3.02044,-15.40008 1.30834,-0.80859 1.30834,-0.8086 6.50785,3.55892 c 3.57932,1.9574 11.45786,6.81329 17.50786,10.79086 6.05,3.97756 14.51409,10.03399 18.80908,13.45873 4.295,3.42474 11.1575,9.40746 15.25,13.29495 4.09251,3.88747 7.44092,7.47085 7.44092,7.96304 l 0,0.89491 -11.40488,7.49964 -11.40489,7.49964 -13.84511,6.90897 c -7.61482,3.79994 -15.02073,7.19843 -16.45759,7.55222 z m 79.33033,-37.56468 c -0.39483,-0.0331 -4.31786,-2.53564 -8.71786,-5.56123 -4.4,-3.0256 -12.83865,-8.39589 -18.75255,-11.93398 -5.9139,-3.53809 -16.4889,-9.3034 -23.5,-12.81181 -7.0111,-3.5084 -15.22245,-7.4096 -18.24745,-8.66934 -3.025,-1.25973 -5.95,-2.7217 -6.5,-3.24882 l -1,-0.95839 18,0.55756 18,0.55755 12,2.08693 c 6.6,1.14781 17.20776,3.4634 23.57281,5.14577 6.36504,1.68237 12.16859,3.42706 12.89676,3.87709 l 1.32396,0.81825 -1.69203,6.85028 c -0.93061,3.76765 -2.81112,10.56278 -4.17891,15.10028 l -2.48688,8.25 -0.71785,-0.0601 z m 75.32332,-5.29762 -5.95881,0.66334 3.45881,-3.00206 c 1.90235,-1.65113 7.16177,-5.73391 11.6876,-9.07285 4.52584,-3.33894 11.95084,-8.30622 16.5,-11.0384 4.54917,-2.73218 11.49814,-6.58089 15.44216,-8.55269 l 7.17094,-3.5851 2.45906,4.22276 c 1.35249,2.32252 4.76306,8.82708 7.57906,14.45459 2.816,5.62751 5.12,10.62059 5.12,11.09574 l 0,0.86392 -18.68916,0.69587 c -10.27904,0.38273 -23.21654,1.1224 -28.75,1.6437 -5.53346,0.52131 -12.74231,1.24634 -16.01966,1.61118 z"
       id="path3442"
       style="fill:#797979" />
    <path
       d="m 161.33673,566.1171 -339,0 0,-1 0,-1 339,0 339,0 0,1 0,1 -339,0 z m -277.42024,-14 c -0.18261,0 -2.04367,-3.2625 -4.13569,-7.25 -2.09201,-3.9875 -5.06108,-9.3875 -6.59792,-12 l -2.79426,-4.75 2.76835,0 2.76834,0 4.38579,8.94772 4.3858,8.94772 0.84677,-0.52334 c 0.46573,-0.28783 2.61294,-4.03606 4.77158,-8.32939 l 3.92481,-7.80605 -0.61833,-0.61833 -0.61833,-0.61833 2.62536,0 2.62536,0 -2.85914,4.75 c -1.57253,2.6125 -4.72379,8.0125 -7.0028,12 -2.27902,3.9875 -4.29308,7.25 -4.47569,7.25 z m 482.92024,-0.87098 c -2.2,0.20472 -6.2819,0.0934 -9.07089,-0.24736 -2.78899,-0.34077 -6.01659,-1.1257 -7.17245,-1.7443 -1.15585,-0.61859 -3.03645,-2.31325 -4.17911,-3.7659 l -2.07755,-2.64118 0,-2.9148 0,-2.9148 1.51693,-2.93341 1.51692,-2.93342 2.8781,-1.48832 c 1.58296,-0.81858 4.70546,-1.78053 6.9389,-2.13767 l 4.06079,-0.64935 5.54418,0.6927 5.54418,0.6927 -0.0304,3.17805 -0.0304,3.17804 -1.11707,-2 c -0.61439,-1.1 -1.24066,-2.15246 -1.39173,-2.3388 -0.15106,-0.18634 -2.10969,-0.75111 -4.35252,-1.25504 l -4.07788,-0.91624 -4.25,0.95186 -4.25,0.95186 -2.25,2.60894 -2.25,2.60895 0,3.22173 0,3.22173 1.6325,2.33072 1.6325,2.33072 4.1175,1.86982 4.1175,1.86983 4.25,0.022 4.25,0.022 2,-2 2,-2 -0.0153,1.25 c -0.008,0.6875 -0.34592,1.75778 -0.75,2.3784 l -0.73469,1.12841 -4,0.37221 z m -424.46376,-0.12902 -4.10661,0 1.12804,-2.10776 1.12804,-2.10777 -0.34285,-9.39301 -0.34286,-9.39301 7.25,7.8e-4 7.25,7.7e-4 2.05115,2.05115 2.05115,2.05115 -0.63804,2.19885 -0.63805,2.19885 -2.02389,1.75 -2.02389,1.75 -2.13921,-0.0304 -2.13922,-0.0304 2,-1.13413 c 1.1,-0.62377 2.33061,-1.62258 2.73469,-2.21959 0.40408,-0.597 0.74158,-1.64796 0.75,-2.33546 0.0084,-0.68752 -0.88469,-2.15002 -1.98469,-3.25002 l -2,-2 -3.5,0 -3.5,0 0,9.42857 0,9.42857 1.57143,1.57143 1.57143,1.57143 -4.10662,0 z m 61.46376,0 -6.5,0 0,-2.72251 0,-2.7225 1.5567,2.2225 1.55671,2.22251 3.78831,0 3.7883,0 1.793,-1.98124 1.793,-1.98124 -1.34466,-1.62023 c -0.73957,-0.89112 -3.72667,-3.14397 -6.63801,-5.00634 l -5.29335,-3.38611 0,-2.88997 0,-2.88998 1.41077,-1.17084 c 0.77592,-0.64396 3.0015,-1.42897 4.94571,-1.74447 l 3.53495,-0.57365 2.55428,0.64109 2.55429,0.64108 -0.0304,2.23095 -0.0304,2.23095 -0.95682,-1.63839 -0.95682,-1.63838 -2.44337,-0.61325 -2.44337,-0.61325 -2.63874,1.00325 -2.63874,1.00324 0.31934,2.1836 0.31934,2.18359 5.31882,3.11714 c 2.92536,1.71443 5.73097,3.76858 6.23469,4.56479 0.50373,0.79621 0.92276,2.23516 0.93118,3.19766 l 0.01529,1.75 -2,2 -2,2 -6.5,0 z m 59.05,-0.0304 -4.95,0.0304 1.2,-1.2 1.2,-1.2 0,-11.83222 0,-11.83223 -1.94184,-0.71777 -1.94185,-0.71778 10.25467,0 10.25467,0 -0.45325,2.37476 -0.45325,2.37477 -0.90927,-1.62477 -0.90926,-1.62476 -4.95031,0 -4.95031,0 0,5.62383 0,5.62383 5.5,-0.4561 5.5,-0.45611 0,2.40371 0,2.4037 -1.57143,-1.57143 -1.57143,-1.57143 -3.92857,0 -3.92857,0 0,5.95031 0,5.95031 1.75,1.01928 1.75,1.01928 -4.95,0.0304 z m 59.45,-0.0639 -4.5,0.0636 1.31729,-0.83529 1.31729,-0.83529 -0.31729,-10.6515 -0.31729,-10.65151 7.02749,0.002 7.0275,0.002 2.2225,1.5567 2.22251,1.55671 0,2.13858 0,2.13857 -2.53888,2.65003 -2.53889,2.65002 5.31123,4.53753 5.31124,4.53753 1.97765,0.50116 1.97765,0.50117 -3.80986,0.116 -3.80986,0.116 -5.28676,-5 -5.28677,-5 -2.65337,0 -2.65338,0 0,4.41667 0,4.41666 1.25,0.50439 1.25,0.50439 -4.5,0.0636 z m 5.42857,-10.9057 3.42857,0 1.57143,-1.57143 1.57143,-1.57143 0,-2.09983 0,-2.09983 -1.65499,-1.82874 -1.65499,-1.82874 -3.34501,0 -3.34501,0 0,5.5 0,5.5 3.42857,0 z m 63.7048,10.98469 -8.63337,-0.0153 1.31729,-0.83529 1.31729,-0.83529 -0.31729,-10.58127 -0.31729,-10.58128 7.25233,-0.31812 7.25233,-0.31812 -0.002,1.95 -0.002,1.95 -1.2,-1.2 -1.2,-1.2 -3.8,0 -3.8,0 0,4.59651 0,4.59652 5.00062,-0.34652 5.00062,-0.34651 -6.2e-4,1.20289 -6.2e-4,1.20288 -5.05733,-0.59897 -5.05732,-0.59896 0.30732,5.39608 0.30733,5.39608 3.84809,0.31621 3.8481,0.31622 1.83236,-1.65826 1.83235,-1.65826 -0.54708,2.09204 -0.54708,2.09205 -8.63337,-0.0153 z m 59.35538,-0.2253 -8.98875,0.25938 1.31729,-0.85999 1.31729,-0.85999 -0.31729,-10.58324 -0.31729,-10.58323 7.75235,-0.31616 7.75235,-0.31616 -0.002,1.19098 c -0.002,0.65504 -0.4527,1.4691 -1.0027,1.80902 l -1,0.61803 0,-1.05901 0,-1.05902 -4.5,0 -4.5,0 0,4.59651 0,4.59652 5.00062,-0.34652 5.00062,-0.34651 -6.2e-4,1.78518 -6.2e-4,1.78519 -2.04945,-1.09684 -2.04946,-1.09683 -2.70054,0.31165 -2.70055,0.31165 -0.31487,4.40089 -0.31487,4.40089 1.31487,0.8338 c 0.72318,0.45859 2.74523,0.84069 4.49344,0.84911 l 3.17857,0.0153 1.67928,-1.67928 1.67928,-1.67928 -0.3691,1.92928 -0.36911,1.92928 -8.98874,0.25939 z m 51.76125,0.0602 -2.25,0.31955 0,-2.1391 0,-2.1391 2.25,0.31955 2.25,0.31955 0,1.5 0,1.5 -2.25,0.31955 z m 120.57569,0.18041 -12.17432,0 2.00323,-2.25 c 1.10178,-1.2375 5.32943,-6.075 9.39479,-10.75 l 7.39155,-8.5 -6.83827,-0.29838 -6.83828,-0.29837 -1.8822,1.70336 -1.88219,1.70337 0.0153,-1.40499 c 0.008,-0.77275 0.34592,-1.85499 0.75,-2.40499 l 0.73469,-1 10.67411,0.5 10.67411,0.5 -8.92411,10.20776 c -4.90825,5.61427 -8.9241,10.50096 -8.9241,10.8593 l 0,0.65154 7.59846,-0.3837 7.59845,-0.38371 1.40155,-1.91672 1.40154,-1.91673 0,2.69113 0,2.69113 -12.17431,0 z m -261.82569,-39 -339,0 0,-1 0,-1 339,0 339,0 0,1 0,1 -339,0 z m -208.5,-52.1539 c -2.75,-0.0802 -6.2375,-0.33323 -7.75,-0.56235 l -2.75,-0.41659 0,-16.88237 0,-16.88236 1.54648,-11.80121 c 0.85056,-6.49067 2.41354,-15.85122 3.47328,-20.80122 1.05974,-4.95 3.82284,-14.96849 6.14022,-22.2633 l 4.21341,-13.26331 0.69476,0.76331 c 0.38212,0.41981 2.16216,4.8133 3.95564,9.7633 1.79347,4.95 5.50294,14.175 8.24325,20.5 2.74031,6.325 7.00987,15.55 9.48791,20.5 2.47804,4.95 7.88561,14.625 12.01683,21.5 4.13122,6.875 9.24834,14.93677 11.37138,17.91505 2.12304,2.97828 3.68415,5.59097 3.46913,5.80599 -0.21501,0.21502 -5.10512,1.24106 -10.8669,2.28011 l -10.47597,1.88916 -13.88471,1.05078 c -7.63659,0.57793 -16.13471,0.98518 -18.88471,0.90501 z m 425.75,-0.97898 c -7.5625,-0.0731 -17.575,-0.52628 -22.25,-1.00711 -4.675,-0.48082 -13.50205,-1.76399 -19.61566,-2.85147 l -11.11567,-1.97725 -11.88433,-3.4376 c -6.53639,-1.89069 -12.95783,-3.84272 -14.26988,-4.33786 l -2.38554,-0.90025 14.38554,-1.23622 c 7.91205,-0.67992 20.84514,-2.13212 28.74021,-3.22712 7.89506,-1.09499 19.59506,-3.05928 26,-4.36509 6.40493,-1.30581 14.69905,-3.1424 18.43137,-4.0813 3.73232,-0.93891 6.97764,-1.51551 7.21181,-1.28134 0.23417,0.23418 0.54894,3.33046 0.69949,6.88063 0.15054,3.55017 0.16773,9.94236 0.0382,14.20486 l -0.23554,7.75 -13.75,-0.13288 z m -209.61709,-4.86712 -1.19069,0 -6.19062,-6.25 -6.19063,-6.25 -1.03069,-16.5 c -0.56689,-9.075 -1.26498,-17.9038 -1.55133,-19.61955 l -0.52063,-3.11954 11.48351,-3.15989 c 6.31593,-1.73794 17.26363,-5.13974 24.32823,-7.55955 7.06459,-2.41981 18.16278,-6.68156 24.66264,-9.47056 6.49987,-2.789 11.99106,-5.07091 12.20265,-5.07091 0.2116,0 -1.67997,4.11106 -4.20349,9.13568 -2.52352,5.02462 -6.86491,12.78712 -9.64755,17.25 -2.78263,4.46287 -8.774,13.06432 -13.31415,19.11432 l -8.25483,11 -9.69586,10.25 -9.69587,10.25 -1.19069,0 z m -146.85166,-4 -1.02519,0 1.59973,-2.25 c 0.87985,-1.2375 4.92373,-7.65 8.98639,-14.25 4.06266,-6.6 9.25074,-15.43597 11.52907,-19.63549 2.27833,-4.19951 6.83012,-13.64951 10.1151,-21 3.28498,-7.35048 6.18161,-13.36451 6.43696,-13.36451 0.25535,0 3.46581,3.96635 7.13437,8.81412 3.66855,4.84776 9.73558,13.83206 13.48228,19.9651 l 6.81219,11.15098 -0.44264,0.71622 c -0.24346,0.39392 -5.49769,3.64971 -11.67608,7.23508 -6.17839,3.58538 -15.82045,8.55091 -21.42681,11.03452 -5.60636,2.48361 -14.76241,6.10602 -20.34678,8.04981 -5.58437,1.9438 -10.61474,3.53417 -11.17859,3.53417 z m 264.28072,-10 c -0.4066,0 -5.42438,-2.28952 -11.15062,-5.08782 -5.72624,-2.7983 -14.12385,-7.3285 -18.66135,-10.06712 l -8.25,-4.9793 0,-0.95987 c 0,-0.52793 2.45444,-5.03123 5.4543,-10.00734 2.99987,-4.9761 8.03808,-12.63602 11.19603,-17.02203 3.15795,-4.38601 7.26358,-9.7525 9.12362,-11.92554 l 3.3819,-3.95098 1.70161,0 1.70161,0 18.97047,9.43734 18.97046,9.43734 10.81884,6.84696 c 5.95036,3.76583 14.63549,9.65038 19.30029,13.07678 l 8.48145,6.22981 -0.58329,0.94379 -0.58329,0.94378 -12.54668,4.08188 c -6.90068,2.24503 -17.33946,5.21434 -23.1973,6.59846 -5.85783,1.38412 -15.76669,3.39122 -22.01969,4.46022 -6.25299,1.069 -11.70175,1.94364 -12.10836,1.94364 z m -135.29743,-3.43121 c -0.17462,0.17462 -2.55557,-2.38941 -5.29101,-5.69784 -2.73544,-3.30844 -7.76911,-9.92035 -11.18593,-14.69314 l -6.2124,-8.67781 5.2124,-1.20119 c 2.86682,-0.66065 6.8592,-1.48083 8.87196,-1.82262 l 3.65957,-0.62143 0.55398,1.82262 c 0.30469,1.00244 1.48884,8.29166 2.63145,16.19827 1.14261,7.90661 1.9346,14.51852 1.75998,14.69314 z m 240.48546,-12.62595 c -0.4125,-0.0314 -5.475,-2.94483 -11.25,-6.47419 -5.775,-3.52937 -18.15,-10.21526 -27.5,-14.85754 -9.35,-4.64227 -22.85,-10.88637 -30,-13.87576 -7.15,-2.9894 -19.62367,-7.82605 -27.71927,-10.74812 l -14.71926,-5.31287 3.64651,-4.08718 c 2.00559,-2.24795 4.20665,-4.4274 4.89126,-4.84321 0.6846,-0.41582 7.01734,-2.34242 14.07275,-4.28134 7.0554,-1.93892 18.67801,-4.60683 25.82801,-5.92868 7.15,-1.32185 19.075,-3.10721 26.5,-3.96745 7.425,-0.86024 14.64889,-1.56462 16.0531,-1.56529 l 2.55309,-0.001 3.61254,9.76858 c 1.9869,5.37272 4.7665,13.81022 6.1769,18.75 1.4104,4.93978 3.27058,12.35642 4.13373,16.48142 0.86316,4.125 2.21392,12 3.00169,17.5 0.78777,5.5 1.44055,10.7875 1.45063,11.75 l 0.0183,1.75 -0.75,-0.0572 z m -371.95108,-9.97678 -6.89799,7.36389 -6.96962,-7.91497 c -3.83329,-4.35324 -9.82291,-11.66582 -13.31027,-16.25018 -3.48735,-4.58437 -9.24147,-12.90937 -12.78693,-18.5 -3.54545,-5.59064 -8.99385,-15.1866 -12.10754,-21.32435 l -5.66126,-11.15955 6.74871,-13.34045 c 3.71179,-7.33725 7.37519,-14.16691 8.14089,-15.17702 l 1.39217,-1.83657 8.87429,4.58339 c 4.88086,2.52087 13.57776,7.65034 19.32646,11.39884 5.74869,3.7485 14.95217,10.46254 20.45217,14.92008 5.5,4.45754 13.3392,11.49231 17.42044,15.63282 l 7.42043,7.52821 -4.75406,7.86411 c -2.61473,4.32526 -8.27212,12.58546 -12.57198,18.35599 -4.29985,5.77053 -10.92201,13.80562 -14.71591,17.85576 z m 115.3084,-14.30819 -9.39268,3.09388 -4.06266,-7.12587 c -2.23447,-3.91924 -6.29981,-11.85088 -9.03409,-17.62588 -2.73429,-5.775 -6.61187,-15.225 -8.61685,-21 -2.00498,-5.775 -4.95338,-15.64706 -6.55199,-21.93791 -1.59862,-6.29084 -2.70122,-11.64325 -2.45024,-11.89423 0.25098,-0.25098 5.30392,-1.72276 11.22876,-3.27061 5.92484,-1.54785 11.72547,-2.83294 12.8903,-2.85576 l 2.11787,-0.0415 3.74401,9.75 c 2.05921,5.3625 5.31069,14.475 7.2255,20.25 1.91482,5.775 5.46447,18.34446 7.88812,27.93212 2.42365,9.58767 4.40663,18.37707 4.40663,19.53199 l 0,2.09987 -9.39268,3.09389 z m 17.86194,-6.65787 -1.21084,0 -0.68826,-7.25 c -0.37855,-3.9875 -1.81391,-14.9 -3.1897,-24.25 -1.37579,-9.35 -3.62824,-22.85 -5.00544,-30 -1.37721,-7.15 -2.74878,-14.0125 -3.04793,-15.25 l -0.54391,-2.25 2.32361,0 2.3236,0 11.93107,7.13419 11.93106,7.13419 11.74403,8.84066 c 6.45922,4.86237 15.3934,12.27373 19.85374,16.4697 4.46034,4.19596 8.10971,8.01584 8.10971,8.48861 0,0.47277 -4.8375,4.06616 -10.75,7.98531 l -10.75,7.12573 -15.90995,7.9108 c -8.75048,4.35095 -16.45483,7.91081 -17.12079,7.91081 z m 80.73839,-38.05816 c -0.38921,-0.032 -3.85765,-2.32284 -7.70765,-5.09076 -3.85,-2.76793 -11.95,-7.98857 -18,-11.60143 -6.05,-3.61285 -17.975,-10.00601 -26.5,-14.20702 -8.525,-4.20101 -17.525,-8.64271 -20,-9.87045 l -4.5,-2.23225 17,0.52331 17,0.5233 10,1.50188 c 5.5,0.82603 13.15,2.19832 17,3.04952 3.85,0.85121 10.825,2.69818 15.5,4.10439 4.675,1.40622 8.63655,2.68601 8.80346,2.844 0.1669,0.15799 -0.62388,4.01318 -1.75729,8.5671 -1.1334,4.55391 -2.97651,11.35486 -4.0958,15.11321 l -2.03506,6.83336 -0.70766,-0.0582 z m 74.29235,-5.40386 -4,0.53885 4.5,-4.1113 c 2.475,-2.26122 10.40331,-8.05238 17.61847,-12.86925 l 13.11846,-8.75793 8.95082,-4.62292 8.95082,-4.62291 3.58416,6.20374 c 1.97129,3.41206 5.14361,9.35374 7.0496,13.20374 1.90599,3.85 3.75743,7.94213 4.11431,9.09361 l 0.64887,2.09362 -19.26776,0.62434 c -10.59726,0.34339 -24.21775,1.08856 -30.26775,1.65595 -6.05,0.56739 -12.8,1.2741 -15,1.57046 z"
       id="path3440"
       style="fill:#535353" />
    <path
       d="m 161.33673,566.1171 -339,0 0,-1 0,-1 339,0 339,0 0,1 0,1 -339,0 z m -277.12662,-15 c -0.42652,0 -2.42603,-3.0375 -4.44334,-6.75 -2.01732,-3.7125 -4.94576,-8.8875 -6.50764,-11.5 l -2.83979,-4.75 2.70869,0.0496 2.7087,0.0495 4.21042,8.95045 4.21041,8.95045 0.83387,0 0.83388,0 4.41142,-9 4.41142,-9 1.94928,0 1.94927,0 -1.50285,1.75 c -0.82656,0.9625 -3.90031,6.1375 -6.83055,11.5 -2.93023,5.3625 -5.67667,9.75 -6.10319,9.75 z m 57.79144,0 -3.73519,0 1.1024,-2.05985 1.1024,-2.05985 -0.31721,-9.44239 -0.31722,-9.44239 7.05887,0.002 7.05887,0.002 1.81613,1.32799 1.81613,1.32798 0,2.7613 0,2.7613 -1.375,1.34491 c -0.75625,0.7397 -2.725,1.63426 -4.375,1.98792 l -3,0.64301 2.5,-1.35224 2.5,-1.35223 0.33036,-2.30744 0.33036,-2.30743 -1.73535,-1.91754 -1.73535,-1.91753 -3.84501,0 -3.84501,0 0,9.8 0,9.8 1.2,1.2 1.2,1.2 -3.73518,0 z m 61.64662,0 -6.31144,0 0,-2.72251 0,-2.7225 1.5567,2.2225 1.55671,2.22251 3.87187,0 3.87186,0 1.57143,-1.57143 c 0.86429,-0.86428 1.57143,-1.91084 1.57143,-2.32568 0,-0.41485 -1.0125,-1.64479 -2.25,-2.73322 -1.2375,-1.08842 -4.1625,-3.19825 -6.5,-4.6885 l -4.25,-2.70955 0,-2.86336 0,-2.86337 1.41077,-1.17084 c 0.77592,-0.64396 3.0015,-1.42897 4.94571,-1.74447 l 3.53495,-0.57365 2.55428,0.64109 2.55429,0.64108 -0.0304,2.23095 -0.0304,2.23095 -0.97555,-1.67185 -0.97554,-1.67186 -3.03469,-0.66652 -3.03468,-0.66653 -2.47628,1.62251 -2.47627,1.62252 1.05035,1.9626 1.05035,1.9626 4.00806,2.04475 c 2.20443,1.12462 4.88938,2.92609 5.96656,4.00327 l 1.95849,1.95851 0,1.96104 0,1.96105 -2.18856,2.03895 -2.18856,2.03896 -6.31144,0 z m 58.73856,-0.079 -4.45,0.079 1.2,-1.2 1.2,-1.2 0,-11.83222 0,-11.83223 -2.01711,-0.74618 -2.01711,-0.74617 10.01164,0.0284 10.01165,0.0284 -0.0249,2.5 -0.0249,2.5 -1.01928,-1.75 -1.01928,-1.75 -4.95031,0 -4.95031,0 0,5.59255 0,5.59255 5.50136,-0.34255 5.50137,-0.34255 -0.0318,2.5 -0.0318,2.5 -1.01928,-1.75 -1.01928,-1.75 -4.45031,0 -4.45031,0 0,6.41667 0,6.41666 1.25,0.50439 1.25,0.50439 -4.45,0.0789 z m 60.95,0 -3.5,0.0789 0,-11.5 0,-11.5 7.02749,0 7.0275,0 2.2225,1.5567 2.22251,1.55671 0,1.86657 0,1.86657 -2.50999,2.98295 -2.50998,2.98295 4.75998,4.20732 c 2.618,2.31403 5.65999,4.57771 6.75999,5.03039 l 2,0.82307 -3.30986,0.0634 -3.30986,0.0634 -5.28676,-5 -5.28677,-5 -2.65337,0 -2.65338,0 0,4.41667 0,4.41666 1.25,0.50439 1.25,0.50439 -3.5,0.0789 z m 4.8,-10.92105 3.8,0 1.2,-1.2 1.2,-1.2 0,-2.47126 0,-2.47126 -1.65499,-1.82874 -1.65499,-1.82874 -3.34501,0 -3.34501,0 0,5.5 0,5.5 3.8,0 z m 64.33337,11 -7.63337,0 0,-11.5 0,-11.5 7.25,0 7.25,0 -0.079,1.75 -0.0789,1.75 -0.50439,-1.25 -0.50439,-1.25 -4.41666,0 -4.41667,0 0,4.59651 0,4.59652 5.00062,-0.34652 5.00062,-0.34651 -6.2e-4,1.20289 -6.2e-4,1.20288 -5.05733,-0.59897 -5.05732,-0.59896 0.30732,5.39608 0.30733,5.39608 3.84809,0.31621 3.8481,0.31622 1.83236,-1.65826 1.83235,-1.65826 -0.54708,2.09204 -0.54708,2.09205 -7.63337,0 z m 59.11663,0.002 -7.75,0.002 0.30924,-11.42503 0.30925,-11.42504 7.44334,-0.32693 7.44334,-0.32693 -0.31957,0.95095 -0.31957,0.95096 -5.18301,-0.27509 -5.18302,-0.2751 0,4.67065 0,4.67066 5.00062,-0.34652 5.00062,-0.34651 -6.2e-4,1.95 -6.2e-4,1.95 -1.2,-1.2 -1.2,-1.2 -3.85226,0 -3.85226,0 0.30226,5.25 0.30226,5.25 4.12708,0.30149 4.12708,0.30149 1.81697,-1.80149 1.81696,-1.80149 -0.69404,1.83179 c -0.38173,1.00748 -0.69405,2.01998 -0.69405,2.25 0,0.23001 -3.4875,0.41909 -7.75,0.42017 z m 51,-0.18241 -2.25,0.31955 0,-2.1391 0,-2.1391 2.25,0.31955 2.25,0.31955 0,1.5 0,1.5 -2.25,0.31955 z m 60.39301,0.14131 -8.14301,-0.0391 -3,-1.32423 c -1.65,-0.72833 -3.80673,-2.22991 -4.79274,-3.33683 l -1.79275,-2.0126 -0.56298,-3.46924 -0.56298,-3.46925 1.56168,-3.01994 1.56167,-3.01994 3.29405,-1.55202 c 1.81173,-0.85361 4.98721,-1.86543 7.05663,-2.2485 l 3.76258,-0.69647 5.48742,0.68561 5.48742,0.6856 -0.0634,3.17805 -0.0634,3.17804 -0.87186,-2.16206 -0.87186,-2.16206 -1.81475,-0.49499 c -0.99812,-0.27225 -3.039,-0.76707 -4.5353,-1.0996 l -2.72054,-0.6046 -4.27946,0.95847 -4.27946,0.95848 -2.25,2.60894 -2.25,2.60895 0,3.30938 0,3.30937 2.1679,2.75604 2.1679,2.75604 3.29998,1.37882 3.29998,1.37882 4.53212,0 4.53212,0 2,-2 2,-2 0,0.91821 c 0,0.50502 -0.27314,1.63002 -0.60699,2.5 l -0.60696,1.58171 -8.14301,-0.0391 z m 59.98904,-0.17821 -11.84379,0.28265 3.35587,-3.88184 c 1.84573,-2.13502 5.94337,-6.81212 9.10587,-10.39356 3.1625,-3.58144 5.75,-6.7993 5.75,-7.1508 l 0,-0.6391 -6.67126,0 -6.67126,0 -1.9983,1.75 -1.99831,1.75 0.66956,-1.83179 c 0.36827,-1.00748 0.66865,-2.13248 0.66753,-2.5 l -0.002,-0.66821 11.02005,0.31271 11.02005,0.31271 -9.01801,10.30045 c -4.95995,5.66521 -9.01805,10.58699 -9.01805,10.93725 l 0,0.63684 6.77749,0 6.7775,0 2.31988,-1.62491 2.31989,-1.62491 -0.35946,1.87491 -0.35946,1.87491 -11.84379,0.28265 z m -261.63205,-38.78269 -339,0 0,-1 0,-1 339,0 339,0 0,1 0,1 -339,0 z m -199.5,-52.65255 c -7.7,0.25749 -15.29551,0.24917 -16.87892,-0.0185 l -2.87891,-0.48667 0.53918,-21.67114 0.53917,-21.67114 1.62482,-9.5 c 0.89365,-5.225 2.74641,-14 4.11725,-19.5 1.37084,-5.5 3.86716,-14.1625 5.54739,-19.25 1.68022,-5.0875 3.35683,-9.25 3.72581,-9.25 0.36897,0 1.72042,3.0375 3.00322,6.75 1.28279,3.7125 4.57153,12.09974 7.30829,18.63831 2.73677,6.53856 7.68784,17.29819 11.00238,23.91028 3.31454,6.61209 8.88854,16.78736 12.38667,22.6117 3.49812,5.82434 8.39341,13.51036 10.87841,17.08004 l 4.51819,6.49033 -2.0092,0.74325 c -1.10506,0.40879 -8.17748,1.62348 -15.71648,2.69931 l -13.70727,1.95605 -14,0.46818 z m 416.75,-0.48033 c -7.5625,-0.0731 -17.575,-0.51949 -22.25,-0.99201 -4.675,-0.47253 -14.40791,-1.99094 -21.62869,-3.37425 l -13.1287,-2.51512 -11.8713,-3.81831 -11.87131,-3.8183 9,-0.72844 c 4.95,-0.40065 16.2,-1.59522 25,-2.65462 8.8,-1.0594 21.175,-2.86067 27.5,-4.00283 6.325,-1.14216 16.14581,-3.21782 21.82402,-4.61259 5.67821,-1.39477 10.49852,-2.36144 10.71181,-2.14816 0.21328,0.21329 0.51096,3.29248 0.66151,6.84265 0.15054,3.55017 0.16773,9.94236 0.0382,14.20486 l -0.23554,7.75 -13.75,-0.13288 z M 168.74109,454.1171 c -0.52917,0 -3.74921,-2.8125 -7.15563,-6.25 l -6.19349,-6.25 -1.03519,-17 c -0.56935,-9.35 -1.23315,-18.17559 -1.4751,-19.61241 l -0.43991,-2.61241 8.69748,-2.24981 c 4.78361,-1.23739 15.22474,-4.40728 23.2025,-7.04421 7.97776,-2.63692 19.90276,-7.12737 26.5,-9.97878 6.59724,-2.8514 12.61289,-5.43783 13.36812,-5.74761 l 1.37314,-0.56325 -5.08811,9.90424 c -2.79845,5.44733 -8.30346,14.85424 -12.23335,20.90424 -3.92989,6.05 -10.39998,15.05 -14.37798,20 -3.978,4.95 -11.04594,12.9375 -15.70653,17.75 -4.66059,4.8125 -8.90677,8.75 -9.43595,8.75 z m -144.63377,-4.61461 -2.72942,0.64238 6.3194,-9.76388 c 3.47568,-5.37014 9.08307,-14.71389 12.46087,-20.76389 3.37781,-6.05 8.60421,-16.35468 11.61423,-22.89929 3.01002,-6.54461 5.94614,-13.2572 6.5247,-14.91687 l 1.05193,-3.01758 4.61638,5.91687 c 2.53901,3.25428 7.19547,9.74187 10.3477,14.41687 3.15223,4.675 7.14709,11.01139 8.87747,14.08086 1.73038,3.06947 3.14615,6.00344 3.14615,6.51994 l 0,0.93908 -6.75,4.12909 c -3.7125,2.271 -11.7,6.58952 -17.75,9.5967 -6.05,3.00719 -16.4,7.49481 -23,9.97248 -6.6,2.47768 -13.22824,4.79394 -14.72941,5.14724 z m 262.41284,-9.40581 c -0.37589,-0.0112 -4.84376,-2.0087 -9.92861,-4.43883 -5.08485,-2.43013 -13.52235,-6.93566 -18.75,-10.01229 -5.22765,-3.07664 -9.50482,-5.93977 -9.50482,-6.36252 0,-0.42275 2.47699,-4.96041 5.50442,-10.08367 3.02743,-5.12327 7.82291,-12.52516 10.65663,-16.44865 2.83371,-3.92349 6.9501,-9.30274 9.14753,-11.95389 l 3.99532,-4.82027 2.59805,0.62285 c 1.42893,0.34257 10.69805,4.62879 20.59805,9.52494 l 18,8.90208 10.46624,6.60579 c 5.75643,3.63318 14.44458,9.56793 19.307,13.18833 l 8.84077,6.58254 -0.807,0.77381 c -0.44386,0.42559 -5.5755,2.36091 -11.40366,4.3007 -5.82815,1.93978 -15.05315,4.65521 -20.5,6.03427 -5.44684,1.37906 -16.12081,3.6544 -23.71992,5.05631 -7.59912,1.4019 -14.12412,2.53973 -14.5,2.5285 z M 151.08314,436.2709 c -0.13553,0.35959 -3.05321,-2.79041 -6.48375,-7 -3.43054,-4.20959 -8.48188,-10.85693 -11.22521,-14.77188 l -4.98787,-7.11807 8.57152,-1.70229 8.57151,-1.70228 0.50344,0.50343 c 0.27689,0.27689 1.58193,7.39606 2.9001,15.82036 1.31817,8.42431 2.28579,15.61114 2.15026,15.97073 z m 240.57555,-12.23519 c -0.45208,-0.0448 -4.42196,-2.31094 -8.82196,-5.03594 -4.4,-2.72499 -13.4424,-7.86011 -20.09422,-11.41138 -6.65182,-3.55126 -17.90182,-9.08719 -25,-12.30207 -7.09818,-3.21487 -18.75578,-8.15704 -25.90578,-10.9826 -7.15,-2.82555 -17.16859,-6.62187 -22.26354,-8.43625 l -9.26355,-3.29887 4.76355,-4.62124 4.76354,-4.62123 9.24315,-2.62033 c 5.08372,-1.44118 14.53372,-3.76621 21,-5.16672 6.46627,-1.40052 17.83185,-3.38261 25.25685,-4.40466 7.425,-1.02205 16.72428,-2.16088 20.66506,-2.53075 l 7.16507,-0.67249 1.01081,1.88872 c 0.55595,1.0388 2.86242,7.25858 5.1255,13.82174 2.26307,6.56316 5.1943,16.21757 6.51385,21.45424 1.31955,5.23667 3.06529,13.57122 3.87943,18.52122 0.81414,4.95 1.77365,11.5875 2.13223,14.75 l 0.65196,5.75 -0.82195,-0.0814 z m -372.47015,-9.52623 -6.40448,6.89238 -7.32174,-8.39238 c -4.02695,-4.61581 -10.42387,-12.5079 -14.21537,-17.53798 -3.79151,-5.03009 -9.86535,-14.03009 -13.49743,-20 -3.63208,-5.96992 -8.6204,-14.85177 -11.08514,-19.73745 l -4.48136,-8.88304 2.70171,-6.11696 c 1.48594,-3.36432 4.9513,-10.16695 7.7008,-15.11695 2.7495,-4.95 5.14558,-9.16476 5.32461,-9.36613 0.17904,-0.20138 4.73576,1.97448 10.12606,4.83522 5.39029,2.86075 14.75053,8.52517 20.80053,12.5876 l 11,7.38624 10,8.43593 c 5.5,4.63976 12.66551,11.15699 15.92336,14.48272 l 5.92336,6.04679 -4.79724,7.79582 c -2.63849,4.28769 -8.50884,12.74581 -13.04522,18.79581 -4.53639,6.05 -11.12999,14.10157 -14.65245,17.89238 z m 109.42785,-12.94073 -3.22034,0.69423 -2.09127,-3.32294 c -1.15019,-1.82762 -4.94935,-9.17294 -8.44258,-16.32294 -3.49322,-7.15 -7.99175,-17.43792 -9.99671,-22.86204 -2.00497,-5.42411 -5.16141,-15.77411 -7.01432,-23 l -3.36892,-13.13796 3.25673,-1.13862 c 1.7912,-0.62624 7.62432,-2.14788 12.96249,-3.38142 5.33817,-1.23354 9.85163,-2.07116 10.02993,-1.86138 0.1783,0.20978 2.14232,5.10642 4.36449,10.88142 2.22217,5.775 5.67432,15.59714 7.67144,21.82697 1.99711,6.22983 5.19493,17.49949 7.10626,25.04369 1.91133,7.54419 3.58494,15.43994 3.71914,17.5461 l 0.244,3.82938 -6,2.25564 c -3.3,1.2406 -7.44915,2.56805 -9.22034,2.94987 z m 24.07083,-8.45335 -0.85049,-0.002 -2.30394,-18.74552 -2.30395,-18.74551 -3.43226,-18.50279 c -1.88775,-10.17653 -3.71596,-19.51528 -4.06269,-20.75278 l -0.63042,-2.25 2.0271,0 2.02709,0 7.33954,4.14206 c 4.03674,2.27813 12.5164,7.64233 18.84368,11.92044 6.32728,4.2781 15.10228,10.80399 19.5,14.50197 4.39772,3.69798 10.35835,9.00591 13.24585,11.7954 2.8875,2.7895 5.25,5.36997 5.25,5.7344 0,0.36442 -3.7125,3.1239 -8.25,6.13217 -4.5375,3.00827 -11.0494,7.1376 -14.47088,9.17629 -3.42149,2.03868 -11.81377,6.38208 -18.64952,9.65199 -6.83574,3.2699 -12.81135,5.94452 -13.27911,5.94358 z m 80.74189,-38.12207 c -0.32581,-0.0681 -5.76738,-3.65476 -12.09238,-7.9704 -6.325,-4.31565 -17.575,-11.22243 -25,-15.34841 -7.425,-4.12599 -19.27981,-10.10181 -26.34403,-13.27961 l -12.84403,-5.77781 7.34403,-0.31311 7.34403,-0.3131 13.20233,1.08518 c 7.26128,0.59686 17.38628,1.80302 22.5,2.68037 5.11372,0.87735 14.89649,3.12873 21.7395,5.00308 6.843,1.87435 12.56233,3.52841 12.70961,3.67569 0.14728,0.14728 -0.39389,3.17346 -1.20262,6.72484 -0.80872,3.55138 -2.66147,10.39455 -4.11723,15.20705 -1.45576,4.8125 -2.91341,8.6943 -3.23921,8.62623 z m 74.58403,-5.36518 -3.8236,0.53612 0.5782,-0.93555 c 0.31801,-0.51455 4.73863,-4.09391 9.8236,-7.95414 5.08496,-3.86022 13.17375,-9.47599 17.97507,-12.47948 4.80132,-3.00349 12.09943,-7.19556 16.21801,-9.31572 l 7.48832,-3.85484 1.54271,1.54271 c 0.84849,0.84849 4.46289,7.30896 8.03199,14.3566 3.56911,7.04764 6.48929,13.14345 6.48929,13.54625 l 0,0.73236 -20.25,0.64954 c -11.1375,0.35724 -24.75,1.09739 -30.25,1.64477 -5.5,0.54739 -11.72062,1.23651 -13.82359,1.53138 z"
       id="path3438"
       style="fill:#363636" />
    <path
       d="m 160.83673,566.1171 -338.5,0 0,-1 0,-1 338.5,0 338.5,0 0,1 0,1 -338.5,0 z m -276.97736,-15 c -0.24875,0 -0.9786,-1.0125 -1.62189,-2.25 -0.64329,-1.2375 -3.39796,-6.4125 -6.12149,-11.5 l -4.95187,-9.25 2.3363,0.052 2.33631,0.052 4.57492,9.67312 4.57492,9.67313 4.67508,-8.57654 c 2.57129,-4.71713 4.67508,-9.09343 4.67508,-9.72514 l 0,-1.14857 1.57005,0 1.57004,0 -4.24779,7.75 c -2.33629,4.2625 -5.29846,9.4375 -6.5826,11.5 -1.28413,2.0625 -2.53831,3.75 -2.78706,3.75 z m 57.97736,0 -2,0 0,-11.5 0,-11.5 2,0 2,0 0,11.5 0,11.5 -2,0 z M 1.7534,551.0312 c -1.69584,0.0473 -3.38334,-0.21405 -3.75,-0.58072 -0.36667,-0.36666 -0.65978,-1.37916 -0.65136,-2.25 l 0.0153,-1.58333 0.81992,1.29242 0.81992,1.29242 2.91476,0.87163 2.91477,0.87162 -3.08333,0.086 z m 5.37878,-0.0301 -2.29545,-0.116 2,-0.49161 c 1.1,-0.27038 2.5625,-0.94828 3.25,-1.50644 l 1.25,-1.01484 0,-1.84683 0,-1.84682 -5.75,-3.66365 c -3.1625,-2.01501 -6.08061,-4.16634 -6.48469,-4.78073 -0.40408,-0.6144 -0.74158,-2.11375 -0.75,-3.3319 l -0.01531,-2.21481 1.93426,-1.03519 c 1.06384,-0.56935 2.22098,-1.03518 2.57143,-1.03518 0.35044,0 -0.07,0.70714 -0.93426,1.57143 -0.86429,0.86428 -1.57143,1.99356 -1.57143,2.5095 0,0.51594 1.86066,2.1713 4.1348,3.67857 2.27414,1.50728 5.42414,3.94338 7,5.41358 1.57586,1.47019 2.8652,3.17814 2.8652,3.79545 0,0.61731 -1.10455,2.22692 -2.45455,3.57692 l -2.45454,2.45455 -2.29546,-0.116 z m 55.20455,0.11825 -2.5,-0.002 0,-13.5 0,-13.5 8.25,0 8.25,0 0,1.7 0,1.7 -1.2,-1.2 -1.2,-1.2 -4.8,0 -4.8,0 0,5.59255 0,5.59255 5.50136,-0.34255 5.50137,-0.34255 -0.0318,2.5 -0.0318,2.5 -1.01928,-1.75 -1.01928,-1.75 -4.53237,0 -4.53237,0 0.33206,7.00225 0.33206,7.00226 -2.5,-0.002 z m 60.28518,-2.9e-4 -2.78518,0.002 0.31054,-11.50197 0.31054,-11.50196 2.68946,0.0153 2.68946,0.0153 -1.31105,0.83143 -1.31105,0.83144 0.31105,4.90325 0.31105,4.90325 3.81979,0.31453 3.81979,0.31452 1.43021,-1.18697 1.43021,-1.18697 0,-3.42583 0,-3.42583 -3.25,-1.50359 -3.25,-1.50359 3.99672,0.52903 3.99672,0.52903 1.25328,1.71397 c 0.6893,0.94268 1.25328,2.26842 1.25328,2.9461 0,0.67768 -1.10373,2.54386 -2.45273,4.14706 l -2.45273,2.9149 4.20273,4.03333 c 2.3115,2.21832 5.10273,4.52746 6.20273,5.13141 l 2,1.09808 -1.79966,0.0304 c -0.98981,0.0167 -3.01481,-0.6062 -4.5,-1.38427 -1.48519,-0.77808 -4.25112,-3.02808 -6.14651,-5 l -3.44616,-3.58531 -3.30384,0 -3.30383,0 0,3.06574 0,3.06574 1.03518,1.93426 1.03519,1.93426 -2.78519,0.002 z m 69.96482,0 -7.75,0.002 0.31054,-11.50197 0.31054,-11.50196 6.93946,0 6.93946,0 6.2e-4,0.75 6.2e-4,0.75 -5.00062,-0.34651 -5.00062,-0.34652 0,4.69303 0,4.69303 4.87405,-0.34652 4.87405,-0.34651 -0.38746,1.00614 -0.38746,1.00614 -4.5425,-0.36128 -4.54249,-0.36128 0.3059,5.35514 0.30591,5.35514 5.25177,0 5.25177,0 -0.002,0.75 -0.002,0.75 -7.75,0.002 z m 58.80202,-0.002 -7.94798,0 1.05009,-3.0123 1.05009,-3.01229 -0.35211,-8.48785 -0.35211,-8.48785 6.75,1.5e-4 6.75,1.4e-4 6.2e-4,0.75 6.2e-4,0.75 -5.00062,-0.34651 -5.00062,-0.34652 0,4.59652 0,4.59651 5,0 5,0 0,0.85321 0,0.8532 -5.05686,-0.4859 -5.05686,-0.4859 0.30686,5.3827 0.30686,5.38269 5.25177,0 5.25177,0 -0.002,0.75 -0.002,0.75 -7.94798,0 z m 50.88455,0 c -0.45019,0 -1.12088,-0.48921 -1.49042,-1.08713 l -0.67189,-1.08713 1.04565,-1.04565 1.04566,-1.04566 1.67984,0.64462 1.67984,0.64462 -1.23507,1.48816 c -0.67929,0.81853 -1.60341,1.48821 -2.05361,1.48821 z m 60.77825,-0.022 -7.21482,-0.022 -4.18368,-1.89946 -4.18369,-1.89945 -1.65481,-3.20007 -1.65482,-3.20006 0.6225,-3.31824 0.62251,-3.31824 3.04307,-2.56057 3.04306,-2.56057 2.4695,-0.61981 2.4695,-0.6198 0.6201,0.62009 0.62009,0.6201 -2.21212,0 -2.21212,0 -2.45454,2.45455 -2.45455,2.45454 0,3.9106 0,3.91059 2.1679,2.75604 2.1679,2.75604 3.29998,1.37882 3.29998,1.37882 4.97542,0 4.97541,0 1.55671,-2.22251 c 0.85618,-1.22237 1.5567,-1.86779 1.5567,-1.43425 0,0.43353 -0.46583,1.65866 -1.03518,2.7225 l -1.03519,1.93438 -7.21481,-0.022 z m 60.52321,-0.19521 -11.23803,0.28275 0,-0.65027 c 0,-0.35765 3.23932,-4.30989 7.19849,-8.78275 3.95918,-4.47287 8.12168,-9.19113 9.25,-10.48504 l 2.05151,-2.35255 -8.75014,0.35255 -8.75015,0.35256 1.5e-4,-0.75 1.4e-4,-0.75 10.5,0 c 5.775,0 10.5,0.22214 10.5,0.49365 0,0.27151 -3.22699,4.20901 -7.17108,8.75 -3.9441,4.54099 -8.07254,9.26885 -9.17432,10.50635 l -2.00323,2.25 8.10289,0 8.10288,0 1.67928,-1.67928 1.67928,-1.67928 -0.36982,1.92928 -0.36982,1.92928 -11.23803,0.28275 z M 259.83673,548.1171 c -0.275,0 -0.5,-0.225 -0.5,-0.5 0,-0.275 0.225,-0.5 0.5,-0.5 0.275,0 0.5,0.225 0.5,0.5 0,0.275 -0.225,0.5 -0.5,0.5 z m -308.85736,-8 -1.08765,0 2.2225,-1.5567 2.22251,-1.55671 0,-2.28831 0,-2.2883 -1.75,-1.5245 c -0.9625,-0.83848 -2.425,-1.7727 -3.25,-2.07604 l -1.5,-0.55155 2.52749,-0.0789 2.5275,-0.0789 2.2225,1.5567 2.22251,1.55671 0,2.37071 0,2.37072 -2.63486,2.07258 c -1.44917,1.13983 -3.1243,2.07249 -3.7225,2.07249 z m 421.09449,-6 c -0.14458,0 -0.70708,-0.9978 -1.25,-2.21734 l -0.98713,-2.21734 -2.5,-0.68298 -2.5,-0.68298 3.75,-0.0997 3.75,-0.0997 0,3 c 0,1.65 -0.11829,3 -0.26287,3 z m 40.76287,-2 c -0.275,0 -0.5,-0.225 -0.5,-0.5 0,-0.275 0.225,-0.5 0.5,-0.5 0.275,0 0.5,0.225 0.5,0.5 0,0.275 -0.225,0.5 -0.5,0.5 z m -399.65833,-2.025 -0.36667,1.1 -1.14485,-1.14485 c -0.62967,-0.62967 -2.64904,-1.53794 -4.4875,-2.01837 l -3.34265,-0.87352 4.46246,0.52666 c 2.45435,0.28966 4.63872,0.70293 4.85416,0.91837 0.21544,0.21544 0.22671,0.88671 0.025,1.49171 z m 348.65833,-2.16995 -3,-0.037 1.76903,-0.46099 c 0.97297,-0.25354 2.32297,-0.23687 3,0.0371 l 1.23097,0.49805 -3,-0.0371 z m -201,-15.80505 -338.5,0 0,-1 0,-1 338.5,0 338.5,0 0,1 0,1 -338.5,0 z m -203.14301,-53.0082 -14.14301,0.008 -0.60699,-1.58179 -0.60699,-1.58178 0,-12.74454 0,-12.74453 1.0628,-10.92368 1.0628,-10.92368 2.34449,-11.75976 2.34449,-11.75976 4.26908,-13.51388 4.26907,-13.51387 0.69541,0.77364 c 0.38247,0.42549 2.62563,5.94863 4.98481,12.27363 2.35917,6.325 6.71244,16.86845 9.67392,23.42989 2.96148,6.56145 7.47164,15.78645 10.02257,20.5 2.55093,4.71356 7.10843,12.62011 10.12776,17.57011 3.01933,4.95 7.44207,11.76475 9.82831,15.14389 l 4.33861,6.1439 -8.76206,1.58837 c -4.81913,0.8736 -12.81206,2.04266 -17.76206,2.5979 l -9,1.00953 -14.14301,0.008 z m 422.64301,-0.3645 -11.5,0.1273 -9.33142,-0.84475 c -5.13229,-0.46462 -13.68229,-1.57871 -19,-2.47576 -5.31772,-0.89705 -14.61858,-2.91256 -20.66858,-4.47891 -6.05,-1.56635 -13.475,-3.73917 -16.5,-4.82848 l -5.5,-1.98057 4.27844,-0.0731 c 2.35314,-0.0402 10.90314,-0.75829 19,-1.59579 8.09686,-0.83749 21.6298,-2.64257 30.0732,-4.01128 8.44341,-1.36871 20.97932,-3.83349 27.85759,-5.47728 6.87826,-1.6438 12.69488,-2.98872 12.92581,-2.98872 0.23093,0 0.29502,6.4125 0.14242,14.25 l -0.27746,14.25004 -11.5,0.1273 z m -211.96879,-4.6273 c -0.32394,0 -3.33469,-2.8125 -6.69056,-6.25 l -6.10157,-6.25 -1.12966,-17.5 c -0.62132,-9.625 -1.12511,-18.44841 -1.11954,-19.60758 l 0.0101,-2.10757 10.20297,-2.7418 c 5.61163,-1.50799 16.74913,-4.99593 24.75,-7.75098 8.00087,-2.75504 19.4013,-7.16762 25.3343,-9.80572 l 10.78727,-4.79655 -0.66076,2.1551 c -0.36341,1.1853 -3.1273,6.6551 -6.14197,12.1551 -3.01467,5.5 -7.96416,13.7523 -10.99886,18.33845 -3.03471,4.58615 -8.23552,11.78615 -11.55735,16 -3.32184,4.21385 -10.55223,12.27405 -16.06755,17.91155 -5.51531,5.6375 -10.29289,10.25 -10.61684,10.25 z m -146.71713,-4 c -0.17092,0 1.20464,-2.1375 3.0568,-4.75 1.85215,-2.6125 6.06717,-9.25 9.36671,-14.75 3.29954,-5.5 8.93084,-15.8512 12.514,-23.00267 3.58316,-7.15146 7.73413,-15.92646 9.22437,-19.5 1.49024,-3.57353 3.07999,-6.88702 3.53277,-7.36331 l 0.82324,-0.86599 7.12838,9.60946 c 3.92061,5.2852 9.80842,14.0398 13.08402,19.45466 3.27559,5.41486 5.95013,10.2553 5.94342,10.75653 l -0.0122,0.91132 -8.73778,5.13688 c -4.80579,2.82529 -11.50299,6.52039 -14.88269,8.21134 -3.37969,1.69096 -10.12969,4.72881 -15,6.7508 -4.8703,2.02199 -12.65201,4.96438 -17.29269,6.53866 -4.64069,1.57428 -8.57744,2.86232 -8.74835,2.86232 z m 267.32479,-10.68637 -2.86112,0.45151 -12.92605,-6.37562 c -7.10932,-3.50659 -15.49681,-8.00818 -18.63887,-10.00354 -3.14206,-1.99537 -5.89367,-3.79184 -6.1147,-3.99216 -0.22103,-0.20032 2.3842,-4.98338 5.7894,-10.62902 3.4052,-5.64564 9.81964,-15.13411 14.25431,-21.08549 4.43467,-5.95138 8.62141,-11.03497 9.30388,-11.29685 l 1.24084,-0.47616 12.40672,5.67304 c 6.8237,3.12017 17.98019,8.79089 24.79221,12.6016 6.81202,3.81071 15.13702,8.77271 18.5,11.02667 3.36298,2.25397 9.82857,6.82307 14.36797,10.15357 l 8.25346,6.05544 -1.56536,0.87602 c -0.86095,0.48182 -5.47501,2.20384 -10.25347,3.82673 -4.77845,1.62289 -13.86309,4.25642 -20.18809,5.85229 -6.325,1.59587 -16.45,3.79908 -22.5,4.89602 -6.05,1.09694 -12.28751,2.19762 -13.86113,2.44595 z M 150.7141,436.1171 c -0.17254,0 -3.63123,-4.1625 -7.68599,-9.25 -4.05476,-5.0875 -8.79409,-11.35608 -10.53184,-13.93018 -1.73774,-2.57409 -3.15954,-4.87804 -3.15954,-5.11989 0,-0.24185 2.8125,-0.98063 6.25,-1.64175 3.4375,-0.66111 7.2101,-1.43029 8.38356,-1.70929 l 2.13355,-0.50726 1.15279,6.61978 c 0.63403,3.64088 1.74192,10.87651 2.46198,16.07918 0.72006,5.20268 1.16803,9.45941 0.99549,9.45941 z m 241.2133,-12.31369 c -0.0715,0.10247 -4.62111,-2.51854 -10.11031,-5.82446 -5.4892,-3.30592 -19.88036,-10.88193 -31.98036,-16.83557 l -22,-10.82481 -12,-4.74247 c -6.6,-2.60835 -17.30786,-6.62306 -23.79524,-8.92158 l -11.79523,-4.17911 4.81141,-4.50051 4.81141,-4.50051 11.55522,-3.20049 c 6.35538,-1.76027 17.18169,-4.30072 24.05847,-5.64543 6.87679,-1.34472 17.86966,-3.12105 24.4286,-3.94741 6.55895,-0.82636 14.5669,-1.6288 17.79544,-1.78321 l 5.87008,-0.28075 3.36966,8.69364 c 1.85331,4.7815 4.70113,13.3315 6.32849,19 1.62736,5.6685 3.86014,14.80636 4.96174,20.30636 1.1016,5.5 2.41188,13.825 2.91174,18.5 0.49986,4.675 0.85036,8.58384 0.77888,8.68631 z m -373.29211,-8.8865 -5.79856,6.29981 -7.5,-8.64487 c -4.125,-4.75468 -10.57807,-12.76459 -14.34016,-17.79981 -3.76209,-5.03522 -9.26494,-13.07202 -12.22855,-17.85956 -2.9636,-4.78755 -7.82956,-13.50758 -10.81324,-19.37786 l -5.42487,-10.67322 0.92977,-2.62215 c 0.51138,-1.44218 3.75777,-8.02126 7.2142,-14.62016 l 6.28443,-11.99801 1.5894,-0.30609 1.58939,-0.30609 9.34982,5.15631 c 5.14239,2.83598 13.65292,8.00351 18.91228,11.4834 5.25936,3.4799 13.13436,9.21994 17.5,12.75565 4.36564,3.53571 11.95986,10.23271 16.87605,14.88222 l 8.93851,8.45365 -4.92573,7.93849 c -2.70916,4.36616 -8.84714,13.11348 -13.63996,19.43848 -4.79282,6.325 -11.32357,14.33491 -14.51278,17.79981 z M 126.12547,402.1171 c -0.38744,0 -1.8484,-2.025 -3.24659,-4.5 -1.39818,-2.475 -3.60563,-6.4125 -4.90544,-8.75 -1.29982,-2.3375 -4.21862,-8.39936 -6.48624,-13.47079 -2.26761,-5.07143 -5.86635,-14.29643 -7.99719,-20.5 -2.13084,-6.20357 -4.92298,-15.65577 -6.20474,-21.00491 l -2.33048,-9.7257 0.65415,-0.65414 c 0.35978,-0.35979 5.93829,-1.94315 12.39669,-3.51859 l 11.74253,-2.86444 0.76427,0.76427 c 0.42034,0.42034 3.00827,6.64665 5.75094,13.83624 l 4.98668,13.07199 4.47234,15.58175 c 2.45978,8.56996 5.42171,19.96365 6.58206,25.31931 l 2.10972,9.73757 -0.78872,0.71454 c -0.4338,0.393 -4.39025,1.89542 -8.79213,3.33872 -4.40187,1.4433 -8.32041,2.62418 -8.70785,2.62418 z m 31.46592,-11.27562 -5.24535,2.16091 -0.40526,-2.19264 c -0.22289,-1.20596 -1.81901,-12.54265 -3.54694,-25.19265 -1.72792,-12.65 -4.26227,-28.625 -5.63188,-35.5 -1.36961,-6.875 -2.73091,-13.2875 -3.0251,-14.25 l -0.53491,-1.75 1.72129,0 1.72129,0 6.5961,3.65495 c 3.62786,2.01022 11.00293,6.54404 16.38906,10.07517 5.38613,3.53112 14.16113,9.93685 19.5,14.23496 5.33887,4.2981 12.63204,10.50919 16.20704,13.80242 l 6.5,5.98768 -2.5,2.04778 c -1.375,1.12628 -6.98628,4.85304 -12.4695,8.2817 -5.48323,3.42865 -14.48323,8.53902 -20,11.35637 -5.51678,2.81734 -12.3909,6.09485 -15.27584,7.28335 z m 77.04984,-37.97189 -0.85049,2.25249 -7.977,-5.55402 c -4.38736,-3.0547 -12.73927,-8.41433 -18.55982,-11.91028 -5.82055,-3.49595 -15.72055,-8.94392 -22,-12.10659 -6.27945,-3.16267 -14.70696,-7.19126 -18.72778,-8.95241 l -7.31059,-3.20209 4.25317,-0.57047 4.25317,-0.57047 14.36984,0.91074 14.36983,0.91074 9.18758,1.5802 c 5.05318,0.86911 13.46259,2.67469 18.68759,4.0124 5.225,1.3377 11.37661,3.00394 13.67025,3.70274 l 4.17024,1.27055 -3.34275,12.98699 c -1.83851,7.14285 -3.72547,14.00061 -4.19324,15.23948 z m 81.4455,-4.40106 c -6.4625,0.65606 -11.75,1.12661 -11.75,1.04565 0,-0.081 3.4875,-2.84126 7.75,-6.13402 4.2625,-3.29275 12.025,-8.79609 17.25,-12.22963 5.225,-3.43354 13.52178,-8.26754 18.4373,-10.74221 l 8.93729,-4.49942 1.36126,1.8541 c 0.74869,1.01975 4.26039,7.55154 7.80377,14.51507 l 6.44252,12.66098 -8.24107,0.56096 c -4.53259,0.30852 -14.54107,0.83427 -22.24107,1.16831 -7.7,0.33405 -19.2875,1.14414 -25.75,1.80021 z"
       id="path3436"
       style="fill:#000000" />
  </g>
</svg>
